<?xml version="1.0" encoding="utf-8"?>
<!-- Generator: Adobe Illustrator 22.0.1, SVG Export Plug-In . SVG Version: 6.00 Build 0)  -->
<svg version="1.1" xmlns="http://www.w3.org/2000/svg" xmlns:xlink="http://www.w3.org/1999/xlink" x="0px" y="0px"
	 viewBox="0 0 511 511" style="enable-background:new 0 0 511 511;" xml:space="preserve">
<style type="text/css">
	.st0{fill:#4CAF50;}
	.st1{fill:#2E7D32;}
	.st2{fill:#4E342E;}
	.st3{fill:#558B30;}
	.st4{fill:#795548;}
	.st5{fill:#AF8066;}
	.st6{fill:#8BC34A;}
	.st7{fill:#607D8B;}
	.st8{fill:#CFD8DC;}
	.st9{fill:#FF9801;}
	.st10{fill:#FEC108;}
	.st11{fill:#C52828;}
	.st12{fill:#F44335;}
	.st13{fill:#FF5722;}
	.st14{fill:#F5F5F5;}
</style>
<g id="Ebene_2">
	<path class="st0" d="M357.4,104.1c17-3.5,34.6-2.7,51.2,2.4c14.7,5.1,31.1,1.9,42.7-8.5c0,0,17.1,93.9-93.9,68.3H152.6
		C41.7,191.8,58.7,98,58.7,98c11.6,10.4,27.9,13.7,42.7,8.5c16.6-5.1,34.2-5.9,51.2-2.4H357.4z"/>
	<path class="st1" d="M370.9,373.2c0.8,1.1,1.1,2.5,0.7,3.9c-0.4,1.3-1.4,2.4-2.7,2.8l-36.1,6.3c-0.6,0.2-1.2,0.6-1.6,1l-12.5,12.5
		c-0.9,0.9-2.2,1.4-3.5,1.2c-1.3-0.2-2.5-0.9-3.1-2l-6.7-11.3l-4.9-8.3c-1.1-1.8-3.4-2.5-5.4-1.7l-16.8,7.4l-3.4-5.7
		c-1.1-1.8-3.4-2.5-5.4-1.7l-22.7,10c-1.4,0.6-2.9,1.2-4.4,1.6c-1.5-0.5-2.9-1-4.4-1.6l-46.5-20.4h-0.1l-11.9,6l-3.5,1.7
		c-1.3,0.7-2.9,0.6-4.1-0.2s-2-2.1-2-3.6v-10.6c0-1.7-1-3.2-2.6-3.8l-47.8-33.7l26.3-6.4c19.1-4.7,32.6-21.8,32.6-41.5v-14.9
		l67.6-10.7l13.5-2.1l72.5,12.8V275c0,19.6,13.3,36.6,32.3,41.4l1.3,0.3l25.3,6.1l-27,32c-1.2,0.5-2.1,1.6-2.4,2.8
		c-0.3,1.3-0.1,2.6,0.7,3.7L370.9,373.2z"/>
	<path class="st2" d="M502.5,396.9v98c0,4.7-3.8,8.5-8.5,8.5h-25.6c4.7,0,8.5-3.8,8.5-8.5v-98c0-27.6-18.9-51.6-45.7-58l-40.8-9.9
		l-8.8-2.1l9.1-4l25.3,6.1l40.8,9.9C483.6,345.3,502.5,369.3,502.5,396.9z"/>
	<path class="st3" d="M357.4,68.3v147.5c0,19.4-11,37.2-28.3,45.8l-51.2,25.6c-11,5.5-23.7,6.8-35.7,3.7c-3.5-0.8-6.9-2-10.1-3.7
		l-51.2-25.6c-17.4-8.7-28.3-26.4-28.3-45.8V68.3c0-33,26.7-59.7,59.7-59.7h85.3C330.7,8.5,357.4,35.3,357.4,68.3z"/>
	<path class="st0" d="M345.3,373.2c0.8,1.1,1.1,2.5,0.7,3.9c-0.4,1.3-1.4,2.4-2.7,2.8l-36.1,6.3c-0.6,0.2-1.2,0.6-1.6,1l-0.3,0.3
		l-4.9-8.3c-1.1-1.8-3.4-2.5-5.4-1.7l-16.8,7.4l-3.4-5.7c-1.1-1.8-3.4-2.5-5.4-1.7l-22.7,10c-1.4,0.6-2.9,1.2-4.4,1.6
		c-1.5-0.5-2.9-1-4.4-1.6l-46.5-20.4h-0.1l-11.9,6l-9.6-4.3v-8.4c0-1.7-1-3.2-2.6-3.8l-47.8-33.7l26.3-6.4
		c19.1-4.7,32.6-21.8,32.6-41.5v-14.9l67.6-10.7l60.4,10.7V275c0,19.6,13.3,36.6,32.3,41.4l1.3,0.3l25.3,6.1l-27,32
		c-1.2,0.5-2.1,1.6-2.4,2.8s-0.1,2.6,0.7,3.7L345.3,373.2z"/>
	<path class="st4" d="M476.9,396.9v98c0,4.7-3.8,8.5-8.5,8.5H16.1c-4.7,0-8.5-3.8-8.5-8.5v-98c0-27.6,18.9-51.6,45.7-58l49.6-11.9
		l16.5-4l47.8,20.9c1.5,0.7,2.6,2.2,2.6,3.8v10.6c0,1.5,0.8,2.8,2,3.6s2.8,0.8,4.1,0.2l3.5-1.7l11.9-6h0.1l46.5,20.4
		c1.4,0.6,2.9,1.2,4.4,1.6c9.9,3.1,20.5,2.5,30-1.6l5.9-2.6l16.8-7.4c2-0.8,4.2-0.1,5.4,1.7l4.9,8.3l6.7,11.3c0.7,1.1,1.8,1.8,3.1,2
		c1.3,0.1,2.6-0.3,3.5-1.2l12.5-12.5c0.4-0.5,1-0.8,1.6-1l19-6.3c1.3-0.4,2.3-1.5,2.7-2.8c0.4-1.3,0.1-2.8-0.7-3.9l-8.9-11.9
		c-0.8-1-1.1-2.4-0.7-3.7c0.3-1.3,1.2-2.3,2.4-2.8l34.9-15.2l8.8,2.1l40.8,9.9C458,345.3,476.9,369.3,476.9,396.9z"/>
	<path class="st5" d="M179.3,360.3l-3.5,1.7c-1.3,0.7-2.9,0.6-4.1-0.2s-2-2.1-2-3.6V356L179.3,360.3z"/>
	<path class="st6" d="M331.8,68.3v147.5c0,19.4-11,37.2-28.3,45.8l-51.2,25.6c-3.2,1.6-6.6,2.9-10.1,3.7c-3.5-0.8-6.9-2-10.1-3.7
		l-51.2-25.6c-17.4-8.7-28.3-26.4-28.3-45.8V68.3c0-33,26.7-59.7,59.7-59.7h59.7c15.8,0,31,6.3,42.2,17.5
		C325.5,37.2,331.8,52.4,331.8,68.3z"/>
	<path class="st0" d="M186.7,460.8l8.5-34.1h17.1l25.6-17.1l-8.5,42.7L186.7,460.8z"/>
	<path d="M458.7,330.6l-92.6-22.4c-15.2-3.8-25.9-17.5-25.9-33.1v-10.2c16.1-11.1,25.7-29.5,25.6-49v-39.1
		c8.6,1.6,17.4,2.4,26.1,2.5c18.1,1.1,35.9-5,49.5-17c25.3-24.1,18.4-64.1,18.1-65.7c-0.6-3.1-2.8-5.7-5.8-6.6
		c-3-0.9-6.3-0.1-8.6,2.1c-9.3,8.1-22.3,10.6-33.9,6.5c-14.7-4.6-30.1-6-45.4-4.3V68.3c0-37.7-30.6-68.2-68.3-68.3h-85.3
		c-37.7,0-68.2,30.6-68.3,68.3v25.9c-15.3-1.8-30.7-0.3-45.4,4.3c-11.7,4.1-24.6,1.6-33.9-6.5c-2.2-2.2-5.5-3.1-8.6-2.1
		s-5.3,3.5-5.8,6.6c-0.3,1.7-7.2,41.6,18.1,65.7c13.6,12,31.4,18.1,49.5,17c8.8-0.1,17.5-0.9,26.1-2.5v39.1
		c-0.1,19.6,9.5,37.9,25.6,49V275c0,15.8-10.8,29.5-26.1,33.2l-92.3,22.4C20.6,337.9-1.1,365.3-1,396.9v98c0,9.4,7.6,17.1,17.1,17.1
		h477.9c9.4,0,17.1-7.6,17.1-17.1v-98C511.1,365.3,489.4,337.9,458.7,330.6z M405.9,114.6c12.3,4.3,25.9,3.7,37.8-1.7
		c0.4,13.6-4.6,26.9-13.9,36.9c-12.7,12.1-34.2,15.2-63.9,9.4v-47.9C379.3,109.5,393,110.6,405.9,114.6z M80.2,149.9
		C71,139.9,66,126.6,66.4,113c11.9,5.4,25.4,6,37.7,1.6c12.9-3.9,26.5-5.1,39.9-3.3v47.9C114.5,165,92.9,162,80.2,149.9z
		 M161.1,215.8V68.3c0-28.3,22.9-51.2,51.2-51.2h85.3c28.3,0,51.2,22.9,51.2,51.2v147.6c0.1,16.2-9.1,31-23.6,38.2l-51.2,25.6
		c-12,6-26.1,6-38.2,0L184.7,254C170.2,246.8,161.1,232,161.1,215.8z M147.6,324.8c22.9-5.6,39.1-26.1,39.1-49.8v-1l34.1,17.1
		c-0.1,16-2.9,32.5-6,35.6c-2.2,2.1-3.1,5.3-2.3,8.3s3.1,5.3,6.1,6.1s6.2-0.1,8.3-2.3c8-8,10.2-27.8,10.8-40.3
		c14.6,4.5,30.3,3.2,44-3.6l41.5-20.8v1c0,23.5,16,44,38.8,49.7l4.6,1.1l-23.4,10.2c-3.6,1.6-6.3,4.7-7.3,8.5
		c-1,3.8-0.2,7.8,2.1,10.9l5.4,7.1l-13.4,4.5c-1.9,0.6-3.6,1.7-5,3.1l-8.6,8.6l-8.9-14.9c-3.3-5.5-10.2-7.7-16.1-5.1l-22.7,9.9
		c-8.7,3.8-18.7,3.8-27.4,0l-46.5-20.4c-1-0.4-2-0.6-3-0.7c-0.2,0-0.4,0-0.5,0c-1.1,0-2.2,0.2-3.2,0.6l-0.6,0.3l-9.3,4.6v-3.6
		c0-5.1-3-9.7-7.7-11.7l-27.2-11.9L147.6,324.8z M493.9,494.9h-85.3v-51.2c0-4.7-3.8-8.5-8.5-8.5c-4.7,0-8.5,3.8-8.5,8.5v51.2H118.5
		v-51.2c0-4.7-3.8-8.5-8.5-8.5c-4.7,0-8.5,3.8-8.5,8.5v51.2H16.1v-98c0-23.7,16.2-44.3,39.3-49.7l60.6-14.7l45.2,19.8v7.7
		c0,4.4,2.3,8.6,6.1,10.9s8.5,2.5,12.5,0.5l11.9-6l42.9,18.8c13.1,5.7,28,5.7,41.1,0l19.3-8.4l9.8,16.3c2,3.4,5.5,5.6,9.4,6.1
		c3.9,0.5,7.8-0.9,10.6-3.6l11.8-11.8l18.1-6c3.9-1.3,6.9-4.4,8.2-8.3s0.5-8.2-2-11.5l-5.7-7.5l39.1-17.1l60.6,14.7
		c23,5.5,39.3,26.1,39.2,49.8V494.9z"/>
	<path d="M237.9,213.3v-8.5c0-4.7-3.8-8.5-8.5-8.5c-4.7,0-8.5,3.8-8.5,8.5v8.5h-17.1c-4.7,0-8.5,3.8-8.5,8.5c0,4.7,3.8,8.5,8.5,8.5
		h102.4c4.7,0,8.5-3.8,8.5-8.5c0-4.7-3.8-8.5-8.5-8.5h-17.1v-8.5c0-4.7-3.8-8.5-8.5-8.5c-4.7,0-8.5,3.8-8.5,8.5v8.5H237.9z"/>
	<path d="M186.7,110.9h17.1V128c0,4.7,3.8,8.5,8.5,8.5c4.7,0,8.5-3.8,8.5-8.5v-17.1h8.5c4.7,0,8.5-3.8,8.5-8.5
		c0-4.7-3.8-8.5-8.5-8.5h-42.7c-4.7,0-8.5,3.8-8.5,8.5C178.2,107.1,182,110.9,186.7,110.9z"/>
	<path d="M280.6,110.9h8.5V128c0,4.7,3.8,8.5,8.5,8.5c4.7,0,8.5-3.8,8.5-8.5v-17.1h17.1c4.7,0,8.5-3.8,8.5-8.5
		c0-4.7-3.8-8.5-8.5-8.5h-42.7c-4.7,0-8.5,3.8-8.5,8.5C272.1,107.1,275.9,110.9,280.6,110.9z"/>
	<path d="M220.9,51.2c4.7,0,8.5-3.8,8.5-8.5v-8.5c0-4.7-3.8-8.5-8.5-8.5c-4.7,0-8.5,3.8-8.5,8.5v8.5
		C212.3,47.4,216.2,51.2,220.9,51.2z"/>
	<path d="M255,51.2c4.7,0,8.5-3.8,8.5-8.5v-8.5c0-4.7-3.8-8.5-8.5-8.5c-4.7,0-8.5,3.8-8.5,8.5v8.5C246.5,47.4,250.3,51.2,255,51.2z"
		/>
	<path d="M289.1,51.2c4.7,0,8.5-3.8,8.5-8.5v-8.5c0-4.7-3.8-8.5-8.5-8.5c-4.7,0-8.5,3.8-8.5,8.5v8.5
		C280.6,47.4,284.4,51.2,289.1,51.2z"/>
	<path d="M242.7,402.5c-2.9-1.9-6.6-1.9-9.5,0l-23.4,15.6h-14.5c-3.9,0-7.3,2.7-8.3,6.5l-8.5,34.1c-0.6,2.6-0.1,5.2,1.6,7.3
		c1.6,2.1,4.1,3.3,6.7,3.3c0.6,0,1.1-0.1,1.7-0.2l42.7-8.5c3.4-0.7,6-3.3,6.7-6.7l8.5-42.7C247,407.9,245.6,404.4,242.7,402.5z
		 M222.1,445l-23.9,4.8l3.7-14.6h10.4c1.7,0,3.3-0.5,4.7-1.4l8.5-5.6L222.1,445z"/>
</g>
<g id="Ebene_1">
	<path class="st2" d="M32.7,508.8l5.8-25.3l14.5,3.3l34.2,7.8l-5.8,25.3l-0.2,0l-17.3-0.1l-7.3-0.1l-10.1-4.6L32.7,508.8z"/>
	<path class="st2" d="M29,525l3.7-16.2l48.4,11l0.2,0l0,0.1l-0.7,3.1l-3,13.1l-0.1,0l-17.4-1.4l-7.4-0.6l-9.7-3.7L29,525z"/>
	<path class="st7" d="M54.2,452.1l40.6-177.7c0.3-1.1,0.6-2.1,1-3.1l16.5,14L74.2,453.1C68.3,451.7,59.8,448.9,54.2,452.1z"/>
	<path class="st8" d="M109.3,293.4l-1.7-26.6l13.4-32.2c0.9,0.2,1.5,0.9,1.6,1.7l5,39.6c0.2,1.1,0.2,2.3,0.1,3.4L109.3,293.4z"/>
	<path class="st7" d="M95.9,271.2c0.4-0.8,0.8-1.5,1.2-2.2l21.7-33.5c0.5-0.7,1.3-1.1,2.2-0.9l-12.1,52.9L95.9,271.2z"/>
	<path class="st8" d="M72,449.5l36.9-162l18.7-8.1c-0.1,0.8-0.2,1.6-0.3,2.3L86.7,459.4C83.2,454.4,77.9,450.9,72,449.5z"/>
	<path class="st9" d="M28.1,529.1L29,525l39,8.9l9.5,2.1l0.1,0l-0.5,2.1l-0.5,2c-1,4.3-3.6,8-7.3,10.4c-3.7,2.3-8.3,3.1-12.6,2.1
		l-7.9-1.8l-8.3-1.9C31.7,546.9,26.1,538,28.1,529.1z"/>
	<path class="st4" d="M47.2,512.1L47.2,512.1l5.8-25.4l10,2.3l14.5,3.3l9.7,2.2l-5.8,25.3l0,0.1l-0.7,3.1l-9.6-0.1l-7.1-3.2
		L47.2,512.1z"/>
	<path class="st4" d="M43.5,528.3l3-13.2l0.7-2.9l0,0l10,2.3l14.5,3.3l9.5,2.1l0.2,0.1l-0.7,3.1l-3.4,15.1l-10-0.8l-7-2.7
		L43.5,528.3z"/>
	<g>
		<path class="st10" d="M42.6,532.4l0.5-2.1l0.4-2l24.6,5.6l9.5,2.1l0.1,0l-0.5,2.1l-0.5,2c-1,4.3-3.6,8-7.3,10.4
			c-3.7,2.3-8.3,3.1-12.6,2.1l-2.6-0.6C45.7,549.6,40.6,541,42.6,532.4z"/>
		<path class="st10" d="M80.8,494l6.4,0.5l20.9,1.5c1.1,0.2,2.2,0.1,3.1-0.5c0.9-0.6,1.6-1.5,1.8-2.6l3.7-16.2
			c0.5-2.2-0.9-4.5-3.1-5l-25.8-10.4L80.8,494z"/>
		<path class="st10" d="M52.2,453.3l-27.7-1.8c-1.1-0.2-2.2-0.1-3.1,0.5c-0.9,0.6-1.6,1.5-1.8,2.6l-3.7,16.2
			c-0.3,1.1-0.1,2.2,0.5,3.1c0.6,0.9,1.5,1.6,2.6,1.8l19.6,7.6l6,2.3L52.2,453.3z"/>
	</g>
	<path class="st11" d="M45.2,487.1c-0.3-0.4-0.5-0.9-0.7-1.3l0,0c-0.2-0.3-0.4-0.7-0.6-1c-5.4-11.1-1.8-24.4,8.3-31.4
		c0.3-0.2,0.6-0.4,0.9-0.6c0.4-0.3,0.8-0.5,1.2-0.7c4.4-2.5,9.4-3.5,14.4-3.1c-1.8,0.5-3.5,1.2-5.1,2.1c-0.4,0.2-0.8,0.4-1.2,0.7
		c-0.3,0.2-0.6,0.4-0.9,0.6c-10.1,7-13.7,20.3-8.3,31.4c0.2,0.4,0.3,0.7,0.6,1l0,0c0.2,0.5,0.5,0.9,0.7,1.3
		c4.1,6.6,11.1,10.9,18.9,11.5C62.6,500.9,51.1,496.6,45.2,487.1z"/>
	<path class="st12" d="M54.4,486.2c-0.3-0.4-0.5-0.9-0.7-1.3l0,0c-0.2-0.3-0.4-0.7-0.6-1c-5.4-11.1-1.8-24.4,8.3-31.4
		c0.3-0.2,0.6-0.4,0.9-0.6c0.4-0.3,0.8-0.5,1.2-0.7c1.6-0.9,3.3-1.7,5.1-2.1c1.1,0.1,2.3,0.3,3.4,0.5c6,1.3,11.2,4.9,14.7,9.9
		c0.3,0.3,0.6,0.7,0.8,1.1c0.2,0.3,0.4,0.6,0.5,0.9c6.1,10.7,3.5,24.2-6.1,31.9c-0.3,0.3-0.7,0.5-1,0.7c-0.4,0.3-0.8,0.6-1.2,0.9
		c-1.9,1.2-4,2.2-6.2,2.8C65.6,497.1,58.5,492.8,54.4,486.2z"/>
	<path class="st13" d="M17,474.8c-5.5,1-10.9-1.8-13.4-6.9c-2.4-5-1.2-11,2.9-14.7c4.2-3.7,10.3-4.2,15-1.2L17,474.8z"/>
	<path class="st14" d="M78.7,459.1c3.9,0.9,6.6,4.4,6.5,8.3c-0.1,4-3,7.3-6.9,8c-3.9,0.7-7.7-1.5-9.2-5.2c-1.4-3.7,0-7.9,3.3-10
		C74.3,459,76.6,458.6,78.7,459.1z"/>
	<path class="st11" d="M66.9,467c2.7,0.6,4.6,3.1,4.6,5.9c-0.1,2.8-2.1,5.1-4.9,5.6c-2.8,0.5-5.5-1.1-6.5-3.7c-1-2.6,0-5.6,2.3-7.1
		C63.8,467,65.4,466.7,66.9,467z"/>
	<path class="st13" d="M116.2,473.7c5.6-0.8,11,2.3,13.2,7.5c2.2,5.2,0.6,11.2-3.8,14.7c-4.5,3.5-10.7,3.5-15.2,0.1L116.2,473.7z"/>
	<path d="M72.9,484.4c5-3.2,7.1-9.4,5-15c-2.1-5.6-7.9-8.8-13.7-7.8c-5.9,1-10.2,6-10.4,11.9c-0.2,5.9,3.9,11.2,9.7,12.5
		C66.8,486.7,70.2,486.1,72.9,484.4z M62.3,472.9c0.2-1.1,0.9-2,1.8-2.6c0.9-0.6,2.1-0.8,3.1-0.5c2.2,0.5,3.6,2.7,3.1,5
		c-0.5,2.2-2.7,3.6-5,3.1C63.2,477.4,61.7,475.1,62.3,472.9L62.3,472.9z"/>
	<path d="M55.9,556.7c11.2,2.5,22.3-4.5,24.9-15.6l0.9-4.1l3.7-16.2l5-21.8l17.1,1.3c0.7,0.1,1.4,0.1,2.1,0.1c6,3.5,13.6,2.9,19-1.6
		c5.4-4.5,7.3-11.8,5-18.4c-2.4-6.6-8.6-10.9-15.6-10.9c-0.9-0.7-1.9-1.3-3-1.6l-23.8-9.6l40.1-175.6c0.5-2.4,0.7-4.8,0.4-7.2
		l-5-39.6c-0.3-2.1-1.6-3.9-3.5-4.9c-1.9-0.9-4.2-0.8-6,0.3c-0.8,0.5-1.4,1.1-1.9,1.9l-21.7,33.5c-1.3,2-2.3,4.3-2.8,6.7L50.7,449.1
		l-25.6-1.6c-1.1-0.2-2.1-0.2-3.2,0c-6.7-3.1-14.6-1.4-19.4,4.1c-4.9,5.5-5.5,13.6-1.6,19.8c3.2,5.2,9,8.1,15.1,7.7
		c0.6,0.3,1.2,0.6,1.8,0.8l16,6.2l-9.6,42.1c-1.2,5.4-0.3,11,2.7,15.7s7.6,8,13,9.2L55.9,556.7z M57.8,548.6l-16.2-3.7
		c-3.2-0.7-6-2.7-7.8-5.5c-1.8-2.8-2.3-6.2-1.6-9.4l40.5,9.2C71.1,545.9,64.5,550.1,57.8,548.6z M35.9,513.8l40.5,9.2l-1.8,8.1
		L34,521.9L35.9,513.8z M55.3,456.2c9.7-6.1,22.5-3.2,28.6,6.6c6.1,9.7,3.2,22.5-6.5,28.6c-9.7,6.1-22.5,3.2-28.6-6.5
		C42.6,475.2,45.6,462.3,55.3,456.2z M122.3,493c-1.6,1-3.4,1.4-5.3,1.2c0-0.1,0.1-0.2,0.1-0.3l3.6-15.7c1.7,0.6,3.2,1.8,4.2,3.3
		C127.4,485.5,126.2,490.6,122.3,493z M112.7,475.8L112.7,475.8l-3.7,16.2c-0.2,0-0.4-0.1-0.6-0.1l-18.3-1.4
		c4.5-6.3,6.2-14.2,4.9-21.8l17.2,6.9C112.3,475.7,112.5,475.8,112.7,475.8z M123.4,276.5c0,0.1,0,0.1,0,0.2l-8.7,3.8l5.9-25.8
		L123.4,276.5z M106.8,278.1l-5.9-7.4l11.7-18.1L106.8,278.1z M97.8,280.2l6.7,8.4l-1.7,7.3c-0.5,2.2,0.9,4.4,3.1,4.9
		c2.2,0.5,4.4-0.9,5-3.1l1.6-7.2l9.4-4.1L84.3,451c-2.3-1.8-4.8-3.2-7.5-4.3l8-34.5c0.5-1.5,0.1-3.1-1-4.2s-2.8-1.5-4.2-1
		c-1.5,0.5-2.6,1.8-2.8,3.3l-8,34.5c-2.9-0.2-5.8,0-8.7,0.6L97.8,280.2z M10.4,455.5c1.5-0.9,3.2-1.3,4.9-1.2L11.8,470
		c0,0.1,0,0.2,0,0.2c-2.9-1.1-4.9-3.8-5.2-6.9C6.3,460.1,7.8,457.1,10.4,455.5z M19.9,471.8l3.7-16.2c0.2,0,0.4,0.1,0.6,0.1
		l18.5,1.2c-4.5,6.3-6.3,14.1-5.1,21.8L20.5,472C20.3,471.9,20.1,471.9,19.9,471.8z M41.6,489.1c0,0.1,0.1,0.1,0.1,0.2
		c8.6,13.6,26.5,17.7,40.1,9.1c0.1,0,0.1-0.1,0.2-0.1l0,0l-3.8,16.6l-40.5-9.2L41.6,489.1L41.6,489.1z"/>
	<path d="M92.6,377.8l14.4-63c0.4-1.5-0.1-3-1.2-4c-1.1-1-2.7-1.4-4.1-0.9c-1.4,0.5-2.5,1.6-2.8,3.1l-14.4,63
		c-0.5,2.2,0.9,4.4,3.1,4.9C89.9,381.4,92.1,380,92.6,377.8z"/>
</g>
</svg>
