<svg height="512pt" viewBox="0 0 512 512.00479" width="512pt" xmlns="http://www.w3.org/2000/svg"><path d="m153.601562 59.738281h204.800782v264.53125h-204.800782zm0 0" fill="#bfa885"/><path d="m503.46875 396.890625v98.046875c0 4.714844-3.820312 8.535156-8.53125 8.535156h-477.867188c-4.714843 0-8.535156-3.820312-8.535156-8.535156v-98.046875c0-27.589844 18.910156-51.585937 45.738282-58.027344l13.996093-3.414062 34.132813-8.277344 44.203125-10.664063c1.050781-.222656 2.078125-.539062 3.070312-.941406.140625.019532.273438-.046875.34375-.167968 1.109375-.34375 2.21875-.769532 3.328125-1.195313.65625-.214844 1.285156-.5 1.875-.855469.714844-.269531 1.402344-.613281 2.050782-1.023437 1.339843-.695313 2.621093-1.492188 3.839843-2.390625 1.4375-.984375 2.804688-2.066406 4.09375-3.242188h181.589844c1.289063 1.175782 2.65625 2.257813 4.097656 3.242188 1.082031.84375 2.253907 1.558594 3.496094 2.136718.605469.449219 1.265625.824219 1.964844 1.109376 1.332031.667968 2.699219 1.265624 4.09375 1.789062 1.621093.601562 3.273437 1.117188 4.949219 1.539062l1.027343.253907 43.175781 10.410156 7.339844 1.792969 20.222656 4.949218 10.242188 2.476563 10.324219 2.472656c2.113281.496094 4.195312 1.125 6.230469 1.878907 1.785156.613281 3.523437 1.355468 5.203124 2.21875 20.960938 9.761718 34.347657 30.804687 34.304688 53.929687zm0 0" fill="#1566c0"/><path d="m409.601562 162.136719v165.035156l-25.597656-6.144531-17.578125-4.265625-1.027343-.253907c-6.921876-1.664062-13.320313-5.039062-18.601563-9.816406 7.667969-17.335937 11.621094-36.082031 11.605469-55.039062v-98.132813c-53.589844-30.976562-102.398438-93.78125-102.398438-93.78125-3.464844 5.742188-7.746094 10.945313-12.714844 15.445313-13.3125 13.3125-39.597656 34.558594-89.6875 61.097656v115.371094c-.011718 18.957031 3.941407 37.703125 11.605469 55.039062-5.28125 4.777344-11.679687 8.152344-18.601562 9.816406l-44.203125 10.664063v-165.035156c.007812-79.867188 61.210937-146.410157 140.800781-153.085938 4.179687-.34375 8.449219-.511719 12.800781-.511719 40.742188-.015624 79.820313 16.160157 108.628906 44.96875 28.808594 28.808594 44.984376 67.886719 44.96875 108.628907zm0 0" fill="#607d8b"/><path d="m153.601562 59.738281h179.199219v264.53125h-179.199219zm0 0" fill="#ffe0b2"/><path d="m477.871094 396.890625v98.046875c0 4.714844-3.824219 8.535156-8.535156 8.535156h-452.265626c-4.714843 0-8.535156-3.820312-8.535156-8.535156v-98.046875c0-27.589844 18.910156-51.585937 45.738282-58.027344l13.996093-3.414062 34.132813-8.277344 44.203125-10.664063c1.050781-.222656 2.078125-.539062 3.070312-.941406.140625.019532.273438-.046875.34375-.167968 1.109375-.34375 2.21875-.769532 3.328125-1.195313.65625-.214844 1.285156-.5 1.875-.855469.714844-.269531 1.402344-.613281 2.050782-1.023437 1.339843-.695313 2.621093-1.492188 3.839843-2.390625 1.4375-.984375 2.804688-2.066406 4.09375-3.242188h155.988281c1.292969 1.175782 2.660157 2.257813 4.097657 3.242188 1.082031.84375 2.257812 1.558594 3.5 2.136718.605469.449219 1.261719.824219 1.960937 1.109376 1.332032.667968 2.699219 1.265624 4.097656 1.789062 1.621094.601562 3.273438 1.117188 4.949219 1.539062l1.023438.253907 43.179687 10.410156 7.335938 1.792969 20.226562 4.949218 10.238282 2.476563 10.324218 2.472656c2.113282.496094 4.195313 1.125 6.230469 1.878907 1.785156.613281 3.527344 1.355468 5.207031 2.21875 20.960938 9.761718 34.34375 30.804687 34.304688 53.929687zm0 0" fill="#2296f3"/><path d="m384.003906 162.136719v158.890625l-17.578125-4.265625-1.027343-.253907c-6.921876-1.664062-13.320313-5.039062-18.601563-9.816406 7.667969-17.335937 11.621094-36.082031 11.605469-55.039062v-98.132813c-53.589844-30.976562-102.398438-93.78125-102.398438-93.78125-3.464844 5.742188-7.746094 10.945313-12.714844 15.445313-8.109374-9.386719 12.714844-15.445313 12.714844-15.445313s-15.105468 30.292969-102.402344 76.542969v115.371094c-.011718 18.957031 3.941407 37.703125 11.605469 55.039062-5.203125 4.695313-37.121093 8.109375-44.203125 9.816406l-18.601562 4.519532v-158.890625c.007812-79.867188 61.210937-146.410157 140.800781-153.085938 79.597656 6.65625 140.8125 73.210938 140.800781 153.085938zm0 0" fill="#cfd8dc"/><path d="m358.402344 204.804688v46.847656c.015625 18.957031-3.9375 37.703125-11.605469 55.039062-.261719.734375-.574219 1.445313-.9375 2.132813l-13.058594 28.246093-17.066406 36.949219-36.519531 79.105469c-4.203125 9.027344-13.253906 14.800781-23.210938 14.800781-9.957031 0-19.011718-5.773437-23.210937-14.800781l-27.992188-60.585938-17.066406-36.949218-21.585937-46.765625c-.367188-.6875-.679688-1.398438-.941407-2.132813-7.664062-17.335937-11.617187-36.082031-11.605469-55.039062v-46.847656h16.46875c11.296876.003906 22.128907 4.484374 30.125 12.457031l25.597657 25.601562c8.007812 8.023438 18.875 12.535157 30.210937 12.535157 11.332032 0 22.203125-4.511719 30.207032-12.535157l25.597656-25.601562c8-7.972657 18.832031-12.453125 30.125-12.457031zm0 0" fill="#cfd8dc"/><path d="m102.402344 85.339844v418.132812h-34.132813v-418.132812c.027344-9.414063 7.652344-17.039063 17.066407-17.070313 9.398437.070313 16.996093 7.671875 17.066406 17.070313zm0 0" fill="#795548"/><path d="m119.46875 76.804688c0 18.851562-15.28125 34.132812-34.132812 34.132812-18.851563 0-34.132813-15.28125-34.132813-34.132812 0-18.851563 15.28125-34.132813 34.132813-34.132813 18.851562 0 34.132812 15.28125 34.132812 34.132813zm0 0" fill="#00bcd4"/><path d="m93.871094 76.804688c0 4.714843-3.824219 8.535156-8.535156 8.535156-4.714844 0-8.535157-3.820313-8.535157-8.535156 0-4.710938 3.820313-8.535157 8.535157-8.535157 4.710937 0 8.535156 3.824219 8.535156 8.535157zm0 0" fill="#ecf0f1"/><path d="m459.746094 330.570312-41.609375-10.070312v-158.363281c.085937-69.863281-44.648438-131.90625-110.960938-153.894531-66.316406-21.992188-139.253906 1.03125-180.929687 57.101562-5.113282-18.566406-22.054688-31.390625-41.3125-31.261719-19.261719.128907-36.03125 13.171875-40.894532 31.808594-4.863281 18.636719 3.394532 38.214844 20.132813 47.734375-2.894531 4.238281-4.441406 9.25-4.4375 14.378906v200.738282l-7.457031 1.828124c-30.691406 7.3125-52.3320315 34.765626-52.27343775 66.320313v98.046875c0 9.425781 7.64062475 17.066406 17.06640575 17.066406h477.867188c9.425781 0 17.066406-7.640625 17.066406-17.066406v-98.046875c.058594-31.546875-21.574218-59-52.257812-66.320313zm-203.742188-313.5c38.476563-.015624 75.386719 15.265626 102.59375 42.472657 27.207032 27.207031 42.488282 64.117187 42.472656 102.59375v154.234375l-32.554687-7.886719-1.109375-.273437c-3.6875-.898438-7.199219-2.410157-10.386719-4.46875 6.460938-16.625 9.820313-34.289063 9.917969-52.125v-84.058594c1.703125.808594 3.410156 1.703125 5.167969 2.421875 2.8125 1.253906 6.082031.894531 8.554687-.9375s3.769532-4.851563 3.390625-7.90625c-.378906-3.054688-2.375-5.667969-5.21875-6.839844-56.976562-24.421875-115.515625-99.046875-116.054687-99.796875-1.800782-2.265625-4.625-3.472656-7.507813-3.207031-2.886719.265625-5.441406 1.964843-6.800781 4.519531-.171875.324219-18.585938 33.066406-115.703125 81.621094-2.730469 1.363281-4.523437 4.078125-4.707031 7.121094-.183594 3.046874 1.269531 5.957031 3.8125 7.640624 2.546875 1.679688 5.792968 1.875 8.523437.511719 1.628907-.851562 3.128907-1.601562 4.71875-2.414062v101.324219c.09375 17.835937 3.453125 35.5 9.914063 52.125-3.1875 2.058593-6.699219 3.570312-10.386719 4.46875l-33.703125 8.125v-154.199219c.085938-80.078125 64.984375-144.976563 145.066406-145.066407zm68.265625 264.535157c-4.714843 0-8.535156 3.820312-8.535156 8.53125v63.550781l-44.242187 95.84375c-2.796876 6.035156-8.839844 9.898438-15.488282 9.898438-6.652344 0-12.695312-3.863282-15.488281-9.898438l-36.507813-79.085938c.515626-1.097656.785157-2.292968.792969-3.507812v-68.265625c0-4.714844-3.820312-8.535156-8.53125-8.535156-4.714843 0-8.535156 3.820312-8.535156 8.535156v36.523437l-13.8125-29.9375c-7.734375-16.824218-11.753906-35.121093-11.785156-53.640624v-38.277344h7.925781c9.058594-.023438 17.75 3.574218 24.140625 9.992187l25.601563 25.597657c19.992187 19.988281 52.402343 19.988281 72.394531 0l25.601562-25.597657c6.390625-6.421875 15.082031-10.019531 24.140625-9.992187h7.929688v38.277344c-.035156 18.519531-4.054688 36.816406-11.785156 53.640624l-5.285157 11.445313v-26.566406c0-4.710938-3.820312-8.53125-8.53125-8.53125zm-67.960937-207.976563c15.097656 18.015625 52.320312 59.496094 93.5625 84.667969v37.972656h-7.929688c-10.890625-.007812-21.496094 3.484375-30.25 9.960938-.246094-.152344-.410156-.394531-.675781-.53125-54.398437-27.203125-107.785156-1.125-110.027344 0-.265625.136719-.425781.378906-.675781.53125-8.753906-6.476563-19.359375-9.96875-30.25-9.960938h-7.925781v-54.902343c57.171875-30.890626 83.191406-54.972657 94.171875-67.738282zm41.96875 145.066406-18.140625 18.144532c-13.515625 12.871094-34.753907 12.871094-48.265625 0l-18.066406-18.039063c27.144531-10.664062 57.308593-10.691406 84.472656-.078125zm-212.941406-167.492187c14.136718 0 25.601562 11.464844 25.601562 25.601563 0 14.136718-11.464844 25.601562-25.601562 25.601562-14.136719 0-25.601563-11.464844-25.601563-25.601562 0-14.136719 11.464844-25.601563 25.601563-25.601563zm-68.265626 345.6875c-.035156-23.675781 16.214844-44.265625 39.253907-49.734375l3.410156-.851562v148.632812h-42.664063zm59.730469 98.046875v-366.933594c0-4.710937 3.820313-8.53125 8.535157-8.53125 4.710937 0 8.535156 3.820313 8.535156 8.53125v366.933594zm418.136719 0h-85.335938v-51.199219c0-4.714843-3.820312-8.535156-8.53125-8.535156-4.714843 0-8.535156 3.820313-8.535156 8.535156v51.199219h-281.597656v-161.050781l37.664062-9.085938c4.59375-1.132812 9.007813-2.894531 13.117188-5.238281l63.289062 137.121094c5.582032 12.089844 17.679688 19.832031 30.996094 19.832031 13.3125 0 25.414063-7.742187 30.992188-19.832031l42.238281-91.527344c2.207031-1.546875 3.53125-4.058594 3.566406-6.75v-.964844l17.488281-37.878906c4.078126 2.332031 8.464844 4.089844 13.027344 5.222656l73.644532 17.824219c-12.222657 10.074219-21.472657 23.289063-26.753907 38.222656-1.75 4.375.375 9.347657 4.753907 11.101563 4.378906 1.75 9.347656-.375 11.101562-4.753906 14.277344-35.703126 33.765625-37.25 34.902344-37.308594.597656-.0625 1.1875-.191406 1.757812-.382813 19.453125 7.683594 32.230469 26.484375 32.214844 47.402344zm0 0"/><path d="m213.335938 170.671875c4.710937 0 8.535156-3.820313 8.535156-8.535156v-17.066407c0-4.710937-3.824219-8.53125-8.535156-8.53125-4.714844 0-8.535157 3.820313-8.535157 8.53125v17.066407c0 4.714843 3.820313 8.535156 8.535157 8.535156zm0 0"/><path d="m298.667969 170.671875c4.714843 0 8.535156-3.820313 8.535156-8.535156v-17.066407c0-4.710937-3.820313-8.53125-8.535156-8.53125-4.710938 0-8.53125 3.820313-8.53125 8.53125v17.066407c0 4.714843 3.820312 8.535156 8.53125 8.535156zm0 0"/><path d="m42.667969 42.671875c4.714843 0 8.535156-3.820313 8.535156-8.535156v-8.53125c0-4.714844-3.820313-8.535157-8.535156-8.535157-4.710938 0-8.53125 3.820313-8.53125 8.535157v8.53125c0 4.714843 3.820312 8.535156 8.53125 8.535156zm0 0"/><path d="m8.535156 59.738281h8.535156c4.710938 0 8.53125-3.820312 8.53125-8.535156 0-4.710937-3.820312-8.53125-8.53125-8.53125h-8.535156c-4.710937 0-8.53124975 3.820313-8.53124975 8.53125 0 4.714844 3.82031275 8.535156 8.53124975 8.535156zm0 0"/><path d="m42.667969 136.539062c4.714843 0 8.535156-3.820312 8.535156-8.535156v-8.53125c0-4.714844-3.820313-8.535156-8.535156-8.535156-4.710938 0-8.53125 3.820312-8.53125 8.535156v8.53125c0 4.714844 3.820312 8.535156 8.53125 8.535156zm0 0"/><path d="m8.535156 110.9375h8.535156c4.710938 0 8.53125-3.820312 8.53125-8.53125 0-4.714844-3.820312-8.535156-8.53125-8.535156h-8.535156c-4.710937 0-8.53124975 3.820312-8.53124975 8.535156 0 4.710938 3.82031275 8.53125 8.53124975 8.53125zm0 0"/><path d="m256.003906 307.203125c-4.714844 0-8.535156 3.820313-8.535156 8.535156v76.800781c0 4.710938 3.820312 8.53125 8.535156 8.53125 4.710938 0 8.53125-3.820312 8.53125-8.53125v-76.800781c0-4.714843-3.820312-8.535156-8.53125-8.535156zm0 0"/><path d="m93.871094 76.804688c0 4.714843-3.824219 8.535156-8.535156 8.535156-4.714844 0-8.535157-3.820313-8.535157-8.535156 0-4.710938 3.820313-8.535157 8.535157-8.535157 4.710937 0 8.535156 3.824219 8.535156 8.535157zm0 0"/></svg>