<svg height="512pt" viewBox="0 0 512.00023 512" width="512pt" xmlns="http://www.w3.org/2000/svg"><path d="m358.398438 104.105469c17-3.484375 34.601562-2.664063 51.203124 2.390625 14.714844 5.121094 31.050782 1.851562 42.664063-8.535156 0 0 17.066406 93.867187-93.867187 68.269531h-204.796876c-110.933593 25.597656-93.867187-68.269531-93.867187-68.269531 11.613281 10.386718 27.949219 13.65625 42.664063 8.535156 16.601562-5.054688 34.203124-5.875 51.203124-2.390625zm0 0" fill="#4caf50"/><path d="m371.882812 373.164062c.84375 1.09375 1.105469 2.535157.695313 3.855469-.40625 1.324219-1.429687 2.367188-2.742187 2.800781l-36.097657 6.3125c-.613281.207032-1.171875.558594-1.621093 1.023438l-12.542969 12.460938c-.921875.925781-2.21875 1.378906-3.515625 1.230468-1.296875-.152344-2.453125-.886718-3.140625-2l-6.742188-11.347656-4.949219-8.277344c-1.125-1.816406-3.40625-2.542968-5.375-1.707031l-16.8125 7.421875-3.414062-5.714844c-1.125-1.816406-3.40625-2.542968-5.375-1.707031l-22.699219 9.984375c-1.421875.613281-2.875 1.15625-4.351562 1.621094-1.476563-.464844-2.929688-1.007813-4.351563-1.621094l-46.507812-20.394531h-.082032l-11.949218 5.972656-3.496094 1.707031c-1.308594.671875-2.875.613282-4.128906-.152344-1.253906-.765624-2.019532-2.132812-2.015625-3.601562v-10.582031c-.007813-1.679688-1.015625-3.1875-2.5625-3.839844l-47.785157-33.707031 26.28125-6.402344c19.125-4.660156 32.589844-21.785156 32.597657-41.46875v-14.851562l67.585937-10.664063 13.480469-2.132813 72.535156 12.796876v14.851562c.003907 19.582031 13.339844 36.644531 32.339844 41.386719l1.28125.339843 25.257813 6.058594-26.964844 32c-1.199219.519532-2.09375 1.5625-2.429688 2.828125-.332031 1.265625-.066406 2.613281.722656 3.65625zm0 0" fill="#2e7d32"/><path d="m503.464844 396.886719v98.046875c0 4.710937-3.820313 8.53125-8.53125 8.53125h-25.601563c4.714844 0 8.535157-3.820313 8.535157-8.53125v-98.046875c0-27.589844-18.910157-51.585938-45.738282-58.027344l-40.789062-9.898437-8.789063-2.132813 9.128907-4.011719 25.257812 6.144532 40.789062 9.898437c26.828126 6.441406 45.742188 30.4375 45.738282 58.027344zm0 0" fill="#4e342e"/><path d="m358.398438 68.265625v147.542969c.007812 19.410156-10.964844 37.152344-28.328126 45.824218l-51.199218 25.597657c-11.046875 5.523437-23.730469 6.828125-35.671875 3.671875-3.496094-.800782-6.878907-2.035156-10.070313-3.671875l-51.199218-25.597657c-17.363282-8.671874-28.335938-26.414062-28.328126-45.824218v-147.542969c0-32.988281 26.742188-59.730469 59.730469-59.730469h85.335938c32.988281 0 59.730469 26.742188 59.730469 59.730469zm0 0" fill="#558b30"/><path d="m346.28125 373.164062c.847656 1.09375 1.105469 2.535157.699219 3.855469-.40625 1.324219-1.429688 2.367188-2.746094 2.800781l-36.09375 6.3125c-.617187.207032-1.171875.558594-1.625 1.023438l-.339844.34375-4.949219-8.277344c-1.125-1.816406-3.40625-2.542968-5.375-1.707031l-16.8125 7.421875-3.414062-5.714844c-1.125-1.816406-3.40625-2.542968-5.375-1.707031l-22.699219 9.984375c-1.421875.613281-2.875 1.15625-4.351562 1.621094-1.476563-.464844-2.929688-1.007813-4.351563-1.621094l-46.507812-20.394531h-.082032l-11.949218 5.972656-9.640625-4.265625v-8.363281c-.007813-1.679688-1.015625-3.1875-2.5625-3.839844l-47.785157-33.707031 26.28125-6.402344c19.125-4.660156 32.589844-21.785156 32.597657-41.46875v-14.851562l67.585937-10.664063 60.414063 10.664063v14.851562c.007812 19.582031 13.339843 36.644531 32.34375 41.386719l1.277343.339843 25.261719 6.058594-26.96875 32c-1.199219.519532-2.09375 1.5625-2.425781 2.828125s-.066406 2.613281.71875 3.65625zm0 0" fill="#4caf50"/><path d="m477.867188 396.886719v98.046875c0 4.710937-3.820313 8.53125-8.535157 8.53125h-452.265625c-4.710937 0-8.53125-3.820313-8.53125-8.53125v-98.046875c-.003906-27.589844 18.910156-51.585938 45.738282-58.027344l49.578124-11.945313 16.46875-4.011718 47.785157 20.90625c1.546875.652344 2.554687 2.164062 2.5625 3.839844v10.582031c-.003907 1.46875.761719 2.835937 2.015625 3.601562s2.820312.824219 4.128906.152344l3.496094-1.707031 11.949218-5.972656h.082032l46.507812 20.394531c1.421875.613281 2.875 1.15625 4.351563 1.621093 9.851562 3.101563 20.496093 2.527344 29.953125-1.621093l5.886718-2.558594 16.8125-7.425781c1.96875-.835938 4.25-.109375 5.375 1.707031l4.949219 8.277344 6.742188 11.347656c.6875 1.113281 1.84375 1.847656 3.140625 2 1.296875.148437 2.59375-.304687 3.515625-1.230469l12.542969-12.457031c.449218-.46875 1.007812-.820313 1.621093-1.027344l19.03125-6.3125c1.3125-.433593 2.335938-1.476562 2.742188-2.800781.410156-1.320312.148437-2.757812-.695313-3.855469l-8.875-11.863281c-.789062-1.042969-1.054687-2.390625-.722656-3.65625.335938-1.265625 1.230469-2.308594 2.429688-2.828125l34.902343-15.1875 8.789063 2.132813 40.789062 9.898437c26.828125 6.441406 45.738282 30.4375 45.738282 58.027344zm0 0" fill="#795548"/><path d="m180.308594 360.277344-3.496094 1.707031c-1.308594.671875-2.875.613281-4.128906-.152344s-2.019532-2.132812-2.015625-3.601562v-2.21875zm0 0" fill="#af8066"/><path d="m332.800781 68.265625v147.542969c.003907 19.410156-10.964843 37.152344-28.332031 45.824218l-51.199219 25.597657c-3.191406 1.636719-6.574219 2.871093-10.070312 3.671875-3.496094-.800782-6.878907-2.035156-10.070313-3.671875l-51.199218-25.597657c-17.363282-8.671874-28.335938-26.414062-28.328126-45.824218v-147.542969c0-32.988281 26.742188-59.730469 59.730469-59.730469h59.734375c15.84375 0 31.035156 6.292969 42.238282 17.492188 11.203124 11.203125 17.496093 26.398437 17.496093 42.238281zm0 0" fill="#8bc34a"/><path d="m187.734375 460.800781 8.53125-34.132812h17.066406l25.601563-17.066407-8.535156 42.664063zm0 0" fill="#4caf50"/><path d="m459.742188 330.5625-92.554688-22.40625c-15.199219-3.800781-25.859375-17.460938-25.855469-33.125v-10.191406c16.089844-11.121094 25.667969-29.457032 25.601563-49.015625v-39.140625c8.625 1.601562 17.375 2.441406 26.144531 2.515625 18.089844 1.0625 35.871094-5.042969 49.496094-16.988281 25.292969-24.132813 18.371093-64.070313 18.054687-65.707032-.566406-3.121094-2.820312-5.667968-5.847656-6.617187-3.023438-.945313-6.328125-.136719-8.574219 2.101562-9.316406 8.117188-22.28125 10.589844-33.9375 6.476563-14.652343-4.589844-30.109375-6.042969-45.363281-4.265625v-25.933594c-.039062-37.683594-30.578125-68.2226562-68.265625-68.265625h-85.308594c-37.683593.0429688-68.222656 30.582031-68.265625 68.265625v25.875c-15.253906-1.773437-30.707031-.320313-45.363281 4.265625-11.652344 4.109375-24.613281 1.632812-33.9375-6.476562-2.246094-2.238282-5.546875-3.050782-8.574219-2.101563s-5.277344 3.496094-5.847656 6.617187c-.3125 1.707032-7.234375 41.617188 18.058594 65.707032 13.621094 11.972656 31.410156 18.097656 49.519531 17.046875 8.769531-.074219 17.519531-.914063 26.144531-2.515625v39.140625c-.066406 19.558593 9.511719 37.894531 25.601563 49.015625v10.191406c.003906 15.75-10.773438 29.457031-26.078125 33.175781l-92.316406 22.355469c-30.691407 7.316406-52.3281255 34.769531-52.273438 66.324219v98.046875c0 9.425781 7.640625 17.066406 17.066406 17.066406h477.867188c9.425781 0 17.066406-7.640625 17.066406-17.066406v-98.046875c.058594-31.546875-21.570312-59-52.257812-66.324219zm-52.839844-215.960938c12.332031 4.335938 25.863281 3.742188 37.769531-1.652343.359375 13.632812-4.613281 26.875-13.859375 36.90625-12.679688 12.105469-34.234375 15.179687-63.878906 9.386719v-47.917969c13.402344-1.824219 27.042968-.707031 39.96875 3.277343zm-325.65625 35.304688c-9.234375-10.050781-14.199219-23.296875-13.832032-36.941406 11.898438 5.367187 25.40625 5.957031 37.726563 1.636718 12.917969-3.949218 26.535156-5.0625 39.925781-3.265624v47.90625c-29.601562 5.785156-51.132812 2.730468-63.820312-9.335938zm80.886718 65.917969v-147.558594c.027344-28.265625 22.933594-51.171875 51.199219-51.199219h85.335938c28.265625.027344 51.171875 22.933594 51.199219 51.199219v147.558594c.054687 16.175781-9.09375 30.976562-23.585938 38.160156l-51.199219 25.601563c-12.019531 5.972656-26.144531 5.972656-38.164062 0l-51.199219-25.601563c-14.492188-7.183594-23.640625-21.984375-23.585938-38.160156zm-13.5 108.964843c22.949219-5.582031 39.105469-26.140624 39.101563-49.757812v-.957031l34.132813 17.066406c-.121094 16.007813-2.875 32.496094-5.972657 35.636719-2.21875 2.140625-3.109375 5.3125-2.328125 8.296875s3.109375 5.3125 6.09375 6.09375 6.15625-.109375 8.300782-2.328125c8.011718-8.003906 10.238281-27.84375 10.820312-40.34375 14.585938 4.503906 30.347656 3.203125 43.996094-3.636719l41.488281-20.785156v.957031c-.027344 23.507812 15.980469 44.007812 38.792969 49.679688l4.582031 1.109374-23.414063 10.238282c-3.585937 1.566406-6.261718 4.683594-7.257812 8.46875-1 3.785156-.210938 7.816406 2.136719 10.945312l5.351562 7.125-13.371093 4.457032c-1.898438.621093-3.625 1.683593-5.035157 3.097656l-8.609375 8.617187-8.917968-14.867187c-3.320313-5.511719-10.21875-7.703125-16.113282-5.117188l-22.707031 9.941406c-8.730469 3.804688-18.652344 3.804688-27.382813 0l-46.546874-20.40625c-.953126-.402343-1.964844-.640624-2.996094-.699218-.179688 0-.375 0-.519532 0-1.082031.003906-2.15625.210937-3.160156.617187l-.628906.289063-9.269531 4.574218v-3.601562c0-5.085938-3.015625-9.691406-7.679688-11.726562l-27.238281-11.945313zm346.300782 170.144532h-85.332032v-51.199219c0-4.714844-3.820312-8.535156-8.535156-8.535156-4.710937 0-8.53125 3.820312-8.53125 8.535156v51.199219h-273.070312v-51.199219c0-4.714844-3.820313-8.535156-8.53125-8.535156-4.714844 0-8.535156 3.820312-8.535156 8.535156v51.199219h-85.332032v-98.046875c-.035156-23.675781 16.21875-44.265625 39.253906-49.734375l60.585938-14.683594 45.226562 19.820312v7.722657c0 4.441406 2.300782 8.566406 6.078126 10.898437 3.777343 2.332032 8.496093 2.539063 12.464843.546875l11.863281-5.972656 42.921876 18.773437c13.097656 5.71875 27.988281 5.71875 41.085937 0l19.253906-8.441406 9.804688 16.339844c2.023437 3.382812 5.496093 5.640625 9.410156 6.125 3.910156.484375 7.828125-.863281 10.617187-3.648438l11.773438-11.769531 18.09375-6.03125c3.902344-1.304687 6.9375-4.40625 8.160156-8.335937 1.222656-3.929688.480469-8.207032-1.992187-11.496094l-5.664063-7.542969 39.074219-17.066406 60.644531 14.6875c23.042969 5.492187 39.28125 26.117187 39.210938 49.808594zm0 0"/><path d="m238.933594 213.332031v-8.53125c0-4.714843-3.820313-8.535156-8.535156-8.535156-4.710938 0-8.53125 3.820313-8.53125 8.535156v8.53125h-17.066407c-4.714843 0-8.535156 3.820313-8.535156 8.535157 0 4.710937 3.820313 8.53125 8.535156 8.53125h102.398438c4.714843 0 8.535156-3.820313 8.535156-8.53125 0-4.714844-3.820313-8.535157-8.535156-8.535157h-17.066407v-8.53125c0-4.714843-3.820312-8.535156-8.53125-8.535156-4.714843 0-8.535156 3.820313-8.535156 8.535156v8.53125zm0 0"/><path d="m187.734375 110.933594h17.066406v17.066406c0 4.714844 3.820313 8.535156 8.53125 8.535156 4.714844 0 8.535157-3.820312 8.535157-8.535156v-17.066406h8.53125c4.714843 0 8.535156-3.820313 8.535156-8.535156 0-4.710938-3.820313-8.53125-8.535156-8.53125h-42.664063c-4.714844 0-8.535156 3.820312-8.535156 8.53125 0 4.714843 3.820312 8.535156 8.535156 8.535156zm0 0"/><path d="m281.601562 110.933594h8.53125v17.066406c0 4.714844 3.820313 8.535156 8.535157 8.535156 4.710937 0 8.53125-3.820312 8.53125-8.535156v-17.066406h17.066406c4.714844 0 8.535156-3.820313 8.535156-8.535156 0-4.710938-3.820312-8.53125-8.535156-8.53125h-42.664063c-4.714843 0-8.535156 3.820312-8.535156 8.53125 0 4.714843 3.820313 8.535156 8.535156 8.535156zm0 0"/><path d="m221.867188 51.199219c4.710937 0 8.53125-3.820313 8.53125-8.53125v-8.535157c0-4.710937-3.820313-8.53125-8.53125-8.53125-4.714844 0-8.535157 3.820313-8.535157 8.53125v8.535157c0 4.710937 3.820313 8.53125 8.535157 8.53125zm0 0"/><path d="m256 51.199219c4.714844 0 8.535156-3.820313 8.535156-8.53125v-8.535157c0-4.710937-3.820312-8.53125-8.535156-8.53125-4.710938 0-8.535156 3.820313-8.535156 8.53125v8.535157c0 4.710937 3.824218 8.53125 8.535156 8.53125zm0 0"/><path d="m290.132812 51.199219c4.714844 0 8.535157-3.820313 8.535157-8.53125v-8.535157c0-4.710937-3.820313-8.53125-8.535157-8.53125-4.710937 0-8.53125 3.820313-8.53125 8.53125v8.535157c0 4.710937 3.820313 8.53125 8.53125 8.53125zm0 0"/><path d="m243.6875 402.507812c-2.871094-1.917968-6.617188-1.917968-9.488281 0l-23.425781 15.625h-14.507813c-3.914063 0-7.324219 2.664063-8.277344 6.460938l-8.53125 34.132812c-.640625 2.550782-.066406 5.25 1.550781 7.324219 1.617188 2.070313 4.097657 3.28125 6.726563 3.28125.574219.007813 1.144531-.050781 1.707031-.167969l42.664063-8.535156c3.375-.675781 6.015625-3.3125 6.691406-6.691406l8.535156-42.664062c.671875-3.390626-.769531-6.851563-3.644531-8.765626zm-20.539062 42.503907-23.894532 4.773437 3.675782-14.585937h10.402343c1.6875 0 3.332031-.5 4.738281-1.433594l8.457032-5.640625zm0 0"/></svg>