<svg height="512pt" viewBox="0 0 512.00023 512" width="512pt" xmlns="http://www.w3.org/2000/svg"><path d="m359.425781 314.539062-40.449219 73.726563-28.84375 34.648437c-13.660156 9.054688-30.382812 12.253907-46.421874 8.871094-9.742188-2.199218-18.742188-6.90625-26.109376-13.652344l-33.109374-25.597656-32-77.996094c16.136718-6.480468 26.707031-22.121093 26.707031-39.507812v-14.851562h153.601562v14.59375c0 17.425781 10.515625 33.125 26.625 39.765624zm0 0" fill="#2e7d32"/><path d="m334.933594 314.539062-40.449219 73.726563-28.839844 34.648437c-6.742187 4.207032-14.164062 7.210938-21.933593 8.871094-9.742188-2.199218-18.742188-6.90625-26.109376-13.652344l-33.109374-25.597656-32-77.996094c16.136718-6.480468 26.707031-22.121093 26.707031-39.507812v-14.851562h129.109375v14.59375c.003906 17.425781 10.515625 33.125 26.625 39.765624zm0 0" fill="#4caf50"/><path d="m298.667969 401.066406v102.398438h-85.335938v-102.398438s42.667969 25.601563 85.335938 0zm0 0" fill="#37474f"/><path d="m399.53125 324.777344-53.929688 89.34375-12.800781 89.34375h-34.132812v-119.464844l60.757812-69.460938c1.941407.792969 3.9375 1.449219 5.972657 1.960938l1.023437.257812zm0 0" fill="#cfd8dc"/><path d="m503.464844 396.886719v98.046875c0 4.710937-3.820313 8.53125-8.53125 8.53125h-162.132813v-102.398438l62.464844-71.421875 4.265625-4.867187 17.40625 4.183594 40.789062 9.898437c26.828126 6.441406 45.742188 30.4375 45.738282 58.027344zm0 0" fill="#37474f"/><path d="m153.601562 76.800781h-15.105468c-6.925782.011719-13.78125 1.433594-20.136719 4.179688l-40.960937 17.496093c-1.574219.667969-2.59375 2.214844-2.59375 3.921876 0 1.710937 1.019531 3.257812 2.59375 3.925781l40.960937 17.496093c6.355469 2.746094 13.210937 4.167969 20.136719 4.179688h254.039062v-51.199219zm0 0" fill="#607d8b"/><path d="m358.398438 68.265625v147.542969c.007812 19.410156-10.964844 37.152344-28.328126 45.824218l-51.199218 25.597657c-10.894532 5.410156-23.355469 6.769531-35.160156 3.839843-3.664063-.855468-7.21875-2.144531-10.582032-3.839843l-51.199218-25.597657c-17.363282-8.671874-28.335938-26.414062-28.328126-45.824218v-147.542969c0-32.988281 26.742188-59.730469 59.730469-59.730469h85.335938c32.988281 0 59.730469 26.742188 59.730469 59.730469zm0 0" fill="#558b30"/><path d="m478.976562 396.886719v98.046875c0 4.710937-3.820312 8.53125-8.535156 8.53125h-137.640625v-102.398438l62.464844-71.421875 37.972656 9.214844c26.828125 6.441406 45.738281 30.4375 45.738281 58.027344zm0 0" fill="#607d8b"/><path d="m333.910156 68.265625v147.542969c.003906 19.410156-10.964844 37.152344-28.332031 45.824218l-51.199219 25.597657c-3.402344 1.667969-6.980468 2.957031-10.667968 3.839843-3.664063-.855468-7.21875-2.144531-10.582032-3.839843l-51.199218-25.597657c-17.363282-8.671874-28.335938-26.414062-28.328126-45.824218v-147.542969c0-32.988281 26.742188-59.730469 59.730469-59.730469h60.84375c15.84375 0 31.035157 6.292969 42.238281 17.492188 11.203126 11.203125 17.496094 26.398437 17.496094 42.238281zm0 0" fill="#8bc34a"/><path d="m396.800781 59.734375h17.066407c4.710937 0 8.53125 3.820313 8.53125 8.53125v68.269531c0 4.710938-3.820313 8.53125-8.53125 8.53125h-17.066407c-4.714843 0-8.535156-3.820312-8.535156-8.53125v-68.269531c0-4.710937 3.820313-8.53125 8.535156-8.53125zm0 0" fill="#37474f"/><path d="m213.332031 384v119.464844h-34.132812l-16.296875-97.066406-50.433594-81.621094 34.132812-8.277344c2.019532-.472656 3.992188-1.128906 5.890626-1.960938zm0 0" fill="#cfd8dc"/><path d="m179.199219 401.066406v102.398438h-162.132813c-4.710937 0-8.53125-3.820313-8.53125-8.53125v-98.046875c-.003906-27.589844 18.910156-51.585938 45.738282-58.027344l58.195312-14.082031zm0 0" fill="#607d8b"/><path d="m459.742188 330.5625-91.230469-22.082031-1.039063-.257813c-15.363281-3.820312-26.144531-17.617187-26.140625-33.449218v-9.933594c16.089844-11.121094 25.667969-29.457032 25.601563-49.015625v-79.289063h17.066406c0 9.425782 7.640625 17.066406 17.066406 17.066406h17.066406c9.425782 0 17.066407-7.640624 17.066407-17.066406v-68.269531c0-9.425781-7.640625-17.066406-17.066407-17.066406h-17.066406c-9.425781 0-17.066406 7.640625-17.066406 17.066406h-17.066406c-.042969-37.683594-30.582032-68.2226562-68.265625-68.265625h-85.335938c-37.683593.0429688-68.222656 30.582031-68.265625 68.265625h-6.570312c-8.078125.015625-16.066406 1.675781-23.484375 4.875l-40.941407 17.484375c-4.714843 2.011719-7.773437 6.644531-7.773437 11.769531 0 5.128907 3.058594 9.761719 7.773437 11.773438l40.960938 17.484375c7.410156 3.195312 15.394531 4.855468 23.464844 4.882812h6.570312v79.289063c-.066406 19.558593 9.511719 37.894531 25.601563 49.015625v10.191406c.003906 15.75-10.773438 29.457031-26.078125 33.175781l-92.316406 22.355469c-30.691407 7.316406-52.3281255 34.769531-52.273438 66.324219v98.046875c0 9.425781 7.640625 17.066406 17.066406 17.066406h477.867188c9.425781 0 17.066406-7.640625 17.066406-17.066406v-98.046875c.058594-31.546875-21.570312-59-52.257812-66.324219zm-75.886719-.808594-57.480469 65.707032c-1.355469 1.550781-2.105469 3.542968-2.109375 5.605468v93.867188h-17.066406v-107.726563l54.972656-62.820312c.390625.101562.75.289062 1.144531.390625zm-161.988281 84.582032c11.394531 4.359374 23.484374 6.636718 35.6875 6.714843 11.160156.015625 22.21875-2.113281 32.578124-6.269531v80.152344h-68.265624zm179.199218-346.070313h17.066406v68.269531h-17.066406zm-17.066406 17.066406v34.132813h-17.066406v-34.132813zm-245.503906 34.132813c-5.773438-.011719-11.484375-1.203125-16.785156-3.496094l-31.777344-13.570312 31.820312-13.582032c5.285156-2.285156 10.984375-3.46875 16.742188-3.484375h6.570312v34.132813zm23.636718 96.359375v-147.558594c.027344-28.265625 22.933594-51.171875 51.199219-51.199219h85.335938c28.265625.027344 51.171875 22.933594 51.199219 51.199219v147.558594c.054687 16.175781-9.09375 30.976562-23.585938 38.160156l-51.199219 25.601563c-12.019531 5.972656-26.144531 5.972656-38.164062 0l-51.199219-25.601563c-14.492188-7.183594-23.640625-21.984375-23.585938-38.160156zm25.601563 59.207031v-.957031l34.292969 17.152343c.09375.941407.339844 1.863282.734375 2.722657 3.140625 8.742187.351562 18.515625-6.929688 24.285156-2.214843 2.140625-3.105469 5.316406-2.324219 8.296875.78125 2.984375 3.109376 5.316406 6.09375 6.09375 2.984376.78125 6.15625-.105469 8.296876-2.324219 8.726562-7.957031 13.515624-19.339843 13.109374-31.140625 13.964844 3.683594 28.792969 2.152344 41.710938-4.308594l41.546875-20.777343v.699219c.015625 16.738281 8.171875 32.425781 21.871094 42.042968l-53.894531 61.585938c-1.355469 1.550781-2.105469 3.539062-2.109376 5.597656v11.945312c-21.554687 10.480469-46.730468 10.457032-68.265624-.058593v-11.886719c0-2.066406-.746094-4.066406-2.109376-5.625l-53.851562-61.539062c13.667969-9.53125 21.820312-25.140626 21.828125-41.804688zm-39.101563 49.757812c.417969-.105468.785157-.292968 1.195313-.402343l54.972656 62.820312v107.726563h-17.066406v-93.867188c0-2.066406-.746094-4.066406-2.109375-5.625l-57.480469-65.703125zm-131.566406 72.097657c-.035156-23.675781 16.21875-44.265625 39.253906-49.734375l54.867188-13.285156c.15625 1.675781.8125 3.261718 1.886719 4.554687l57.59375 65.851563v90.660156h-51.203125v-51.199219c0-4.714844-3.820313-8.535156-8.53125-8.535156-4.714844 0-8.535156 3.820312-8.535156 8.535156v51.199219h-85.332032zm477.867188 98.046875h-85.332032v-51.199219c0-4.714844-3.820312-8.535156-8.535156-8.535156-4.710937 0-8.53125 3.820312-8.53125 8.535156v51.199219h-51.203125v-90.660156l57.628907-65.851563c1.070312-1.292969 1.730468-2.878906 1.882812-4.554687l54.878906 13.285156c23.015625 5.488281 39.246094 26.070312 39.210938 49.734375zm0 0"/><path d="m204.800781 68.265625h8.53125v8.535156c0 4.710938 3.820313 8.53125 8.535157 8.53125 4.710937 0 8.53125-3.820312 8.53125-8.53125v-8.535156h17.066406v8.535156c0 4.710938 3.824218 8.53125 8.535156 8.53125 4.714844 0 8.535156-3.820312 8.535156-8.53125v-8.535156h17.066406v8.535156c0 4.710938 3.820313 8.53125 8.53125 8.53125 4.714844 0 8.535157-3.820312 8.535157-8.53125v-8.535156h8.53125c4.714843 0 8.535156-3.820313 8.535156-8.53125 0-4.714844-3.820313-8.535156-8.535156-8.535156h-8.53125v-8.53125c0-4.714844-3.820313-8.535157-8.535157-8.535157-4.710937 0-8.53125 3.820313-8.53125 8.535157v8.53125h-17.066406v-8.53125c0-4.714844-3.820312-8.535157-8.535156-8.535157-4.710938 0-8.535156 3.820313-8.535156 8.535157v8.53125h-17.066406v-8.53125c0-4.714844-3.820313-8.535157-8.53125-8.535157-4.714844 0-8.535157 3.820313-8.535157 8.535157v8.53125h-8.53125c-4.714843 0-8.535156 3.820312-8.535156 8.535156 0 4.710937 3.820313 8.53125 8.535156 8.53125zm0 0"/><path d="m196.265625 119.464844h8.535156v17.070312c0 4.710938 3.820313 8.53125 8.53125 8.53125 4.714844 0 8.535157-3.820312 8.535157-8.53125v-17.070312h8.53125c4.714843 0 8.535156-3.820313 8.535156-8.53125 0-4.714844-3.820313-8.535156-8.535156-8.535156h-34.132813c-4.710937 0-8.53125 3.820312-8.53125 8.535156 0 4.710937 3.820313 8.53125 8.53125 8.53125zm0 0"/><path d="m281.601562 102.398438c-4.714843 0-8.535156 3.820312-8.535156 8.535156 0 4.710937 3.820313 8.53125 8.535156 8.53125h8.53125v17.070312c0 4.710938 3.820313 8.53125 8.535157 8.53125 4.710937 0 8.53125-3.820312 8.53125-8.53125v-17.070312h8.535156c4.710937 0 8.53125-3.820313 8.53125-8.53125 0-4.714844-3.820313-8.535156-8.53125-8.535156zm0 0"/><path d="m290.132812 213.332031h-68.265624c-4.714844 0-8.535157 3.820313-8.535157 8.535157 0 4.710937 3.820313 8.53125 8.535157 8.53125h68.265624c4.714844 0 8.535157-3.820313 8.535157-8.53125 0-4.714844-3.820313-8.535157-8.535157-8.535157zm0 0"/><path d="m76.800781 384c0-4.710938-3.820312-8.535156-8.535156-8.535156-4.710937 0-8.53125 3.824218-8.53125 8.535156-4.714844 0-8.535156 3.820312-8.535156 8.535156 0 4.710938 3.820312 8.53125 8.535156 8.53125 0 4.714844 3.820313 8.535156 8.53125 8.535156 4.714844 0 8.535156-3.820312 8.535156-8.535156 4.710938 0 8.53125-3.820312 8.53125-8.53125 0-4.714844-3.820312-8.535156-8.53125-8.535156zm0 0"/><path d="m442.878906 371.652344c-2.105468-4.21875-7.234375-5.929688-11.449218-3.824219-4.21875 2.109375-5.929688 7.234375-3.824219 11.453125l17.066406 34.132812c2.105469 4.21875 7.234375 5.929688 11.453125 3.824219 4.21875-2.109375 5.929688-7.234375 3.820312-11.453125zm0 0"/></svg>