<svg height="512pt" viewBox="0 0 512.00023 512" width="512pt" xmlns="http://www.w3.org/2000/svg"><path d="m503.464844 396.886719v98.046875c0 4.710937-3.820313 8.53125-8.53125 8.53125h-477.867188c-4.710937 0-8.53125-3.820313-8.53125-8.53125v-98.046875c-.003906-27.589844 18.910156-51.585938 45.738282-58.027344l92.328124-22.359375c11.863282-2.898438 24.746094-5.289062 33.023438-14.675781 0-.046875.039062-.085938.085938-.085938l126.976562-2.132812 25.089844-.425781c9.914062 7.996093 21.355468 13.886718 33.621094 17.320312l1.023437.257812 50.515625 12.203126 40.789062 9.898437c26.828126 6.441406 45.742188 30.4375 45.738282 58.027344zm0 0" fill="#bfa885"/><path d="m477.867188 396.886719v98.046875c0 4.710937-3.820313 8.53125-8.535157 8.53125h-452.265625c-4.710937 0-8.53125-3.820313-8.53125-8.53125v-98.046875c-.003906-27.589844 18.910156-51.585938 45.738282-58.027344l92.328124-22.359375c11.863282-2.898438 24.746094-5.289062 33.023438-14.675781 0-.046875.039062-.085938.085938-.085938l126.976562-2.132812c9.820312 7.75 21.070312 13.492187 33.109375 16.894531l1.023437.257812 50.519532 12.203126 40.789062 9.898437c26.828125 6.441406 45.738282 30.4375 45.738282 58.027344zm0 0" fill="#ffe0b2"/><path d="m153.601562 44.289062c-16.859374-1.867187-33.914062.328126-49.75 6.398438-13.570312 5.804688-28.160156 20.992188-43.519531 11.179688-2.785156-1.667969-5.035156-4.097657-6.488281-6.996094-1.9375-5.421875-1.175781-11.445313 2.050781-16.214844 4.667969-7.238281 10.457031-13.691406 17.152344-19.113281 1.449219-1.28125 9.554687-9.386719 12.117187-9.386719-4.269531-.941406-76.628906-14.847656-76.628906 59.730469 0 24.492187 10.238282 50.261719 37.460938 53.421875 12.375 1.035156 24.832031-.328125 36.691406-4.011719l181.4375-.050781c-.589844-24.960938-.90625-50.066406-2.5625-74.957032zm0 0" fill="#ffb301"/><path d="m432.214844 9.214844c-2.902344.429687-4.78125.855468-5.378906.941406 2.5625 0 10.667968 8.105469 12.117187 9.386719 6.695313 5.421875 12.484375 11.875 17.152344 19.113281 3.226562 4.769531 3.988281 10.792969 2.050781 16.214844-1.453125 2.898437-3.703125 5.328125-6.488281 6.996094-7.054688 4.265624-15.894531 4.265624-22.953125 0-7.082032-3.242188-13.910156-8.363282-20.566406-11.179688-15.835938-6.070312-32.890626-8.265625-49.75-6.398438h-96.792969c1.613281 24.890626 1.929687 49.996094 2.5625 74.957032h165.015625c5.515625 1.578125 11.132812 2.773437 16.8125 3.582031 6.628906 1.0625 13.375 1.234375 20.050781.511719 27.179687-3.191406 37.417969-28.960938 37.417969-53.453125 0-64.167969-53.585938-62.804688-71.25-60.671875zm0 0" fill="#ff9801"/><path d="m480.511719 69.886719c0 23.554687-9.472657 48.386719-34.558594 52.90625-.949219.261719-1.921875.433593-2.902344.515625-12.4375 1.054687-24.960937-.339844-36.863281-4.097656l-323.5.085937h-22.953125l275.710937-75.007813c7.613282-.511718 15.253907-.511718 22.871094 0h.082032c9.234374.582032 18.296874 2.746094 26.796874 6.398438 13.566407 5.804688 28.160157 20.992188 43.519532 11.179688 7.058594 4.265624 15.898437 4.265624 22.953125 0 2.785156-1.667969 5.035156-4.097657 6.488281-6.996094 1.9375-5.421875 1.175781-11.445313-2.050781-16.214844-4.667969-7.238281-10.457031-13.691406-17.152344-19.113281-1.449219-1.28125-9.554687-9.386719-12.117187-9.386719.597656-.085938 2.476562-.511719 5.378906-.941406 21.929687 2.902344 48.296875 15.617187 48.296875 60.671875zm0 0" fill="#ffb301"/><path d="m358.398438 77.140625s59.734374-8.53125 76.800781 59.734375c0 0-51.199219 8.53125-76.800781-17.066406l-204.796876-.34375c-25.601562 25.601562-76.800781 17.070312-76.800781 17.070312 17.066407-68.269531 76.800781-59.734375 76.800781-59.734375zm0 0" fill="#4e342e"/><path d="m358.398438 68.265625v56.320313c.003906 13.53125-2.664063 26.929687-7.847657 39.425781l-43.351562 109.054687s25.601562 17.066406 25.601562 34.132813c.011719 9.058593-3.582031 17.746093-9.984375 24.148437-6.40625 6.40625-15.09375 9.996094-24.148437 9.984375h-85.335938c-18.851562 0-34.132812-15.28125-34.132812-34.132812 0-17.066407 25.601562-34.132813 25.601562-34.132813l-44.375-118.785156c-4.511719-11.734375-6.824219-24.203125-6.824219-36.777344v-49.238281c.082032-32.953125 26.777344-59.648437 59.730469-59.730469h7.425781c6.277344.003906 12.414063 1.84375 17.664063 5.289063 1.507813 1.027343 3.105469 1.914062 4.777344 2.644531 4.035156 1.785156 8.390625 2.714844 12.800781 2.730469 6.265625.007812 12.390625-1.863281 17.578125-5.375 3.050781-1.964844 6.390625-3.433594 9.898437-4.351563 2.542969-.617187 5.148438-.933594 7.765626-.9375h7.425781c32.988281 0 59.730469 26.742188 59.730469 59.730469zm0 0" fill="#4e342e"/><path d="m332.800781 68.265625v56.320313c0 13.53125-2.667969 26.929687-7.851562 39.425781l-43.347657 109.054687s25.597657 17.066406 25.597657 34.132813c.011719 9.058593-3.582031 17.746093-9.984375 24.148437-6.402344 6.40625-15.09375 9.996094-24.148438 9.984375h-59.734375c-18.851562 0-34.132812-15.28125-34.132812-34.132812 0-17.066407 25.601562-34.132813 25.601562-34.132813l-44.375-118.785156c-4.511719-11.734375-6.824219-24.203125-6.824219-36.777344v-49.238281c-.035156-28.980469 20.777344-53.785156 49.320313-58.792969 3.511719.917969 6.851563 2.386719 9.898437 4.351563 5.191407 3.511719 11.3125 5.382812 17.578126 5.375 4.410156-.015625 8.769531-.945313 12.800781-2.730469 1.671875-.730469 3.273437-1.617188 4.78125-2.644531 5.246093-3.445313 11.386719-5.285157 17.664062-5.289063h7.421875c32.957032.082032 59.648438 26.777344 59.734375 59.730469zm0 0" fill="#795548"/><path d="m230.398438 102.398438-2.472657 17.410156c-3.136719 5.054687-8.644531 8.148437-14.59375 8.191406-8.765625.007812-16.113281-6.628906-16.996093-15.351562-.882813-8.722657 4.992187-16.695313 13.585937-18.441407zm0 0" fill="#c52828"/><path d="m315.734375 110.933594c-.027344 9.414062-7.652344 17.039062-17.066406 17.066406-5.949219-.042969-11.457031-3.136719-14.59375-8.191406l-2.472657-17.410156 20.480469-8.191407c7.921875 1.664063 13.605469 8.632813 13.652344 16.726563zm0 0" fill="#c52828"/><path d="m466.988281 131.78125c33.183594-3.847656 45.011719-34.5 45.011719-61.894531 0-25.027344-7.578125-43.808594-22.511719-55.824219-23.902343-19.183594-58.257812-13.480469-63.769531-12.355469-.585938.105469-1.15625.277344-1.707031.511719-.21875.078125-.460938.109375-.679688.203125-3.109375 1.328125-5.125 4.386719-5.121093 7.765625.015624.964844.207031 1.921875.5625 2.816406v.050782c.300781.8125.71875 1.570312 1.246093 2.253906.085938.121094.179688.222656.273438.332031.683593.78125 1.5 1.4375 2.40625 1.9375.414062.226563.84375.417969 1.289062.574219.246094.082031.441407.238281.699219.304687 2.5625 1.898438 4.976562 3.988281 7.226562 6.246094l1.433594 1.324219c5.964844 4.867187 11.144532 10.625 15.359375 17.066406 1.765625 2.417969 2.34375 5.503906 1.570313 8.398438-.765625 1.363281-1.894532 2.492187-3.265625 3.25-6.316407 4.019531-12.425781 1.246093-23.945313-5.589844-3.734375-2.324219-7.613281-4.410156-11.613281-6.238282-16.808594-6.507812-34.917969-8.945312-52.847656-7.109374-11.914063-22.011719-34.910157-35.7500005-59.9375-35.804688h-7.425781c-7.980469 0-15.785157 2.351562-22.441407 6.757812-7.792969 5.164063-17.929687 5.136719-25.695312-.066406-6.632813-4.367187-14.40625-6.69531225-22.347657-6.691406h-7.425781c-25.039062.015625-48.0625 13.730469-60.003906 35.738281-17.929687-1.832031-36.035156.605469-52.839844 7.109375-4.003906 1.824219-7.886719 3.910156-11.621093 6.234375-11.519532 6.828125-17.621094 9.628907-23.851563 5.652344-1.410156-.769531-2.578125-1.921875-3.363281-3.320313-.769532-2.90625-.183594-6.007812 1.597656-8.429687 4.242188-6.449219 9.449219-12.207031 15.445312-17.070313l1.363282-1.269531c2.25-2.257812 4.667968-4.347656 7.230468-6.246093.195313-.050782.355469-.179688.542969-.246094.5625-.179688 1.105469-.414063 1.613281-.710938.28125-.167968.539063-.347656.804688-.546875.558594-.398437 1.066406-.863281 1.507812-1.390625.128907-.152344.222657-.339844.335938-.503906 1.066406-1.402344 1.664062-3.109375 1.703125-4.871094-.039063-2.1875-.933594-4.273437-2.488281-5.8125-.210938-.191406-.429688-.375-.660156-.542968-.824219-.761719-1.820313-1.320313-2.898438-1.621094-.332031-.152344-.671875-.28125-1.015625-.386719-3.578125-.742187-39.484375-7.585937-64.222656 12.296875-14.933594 12.015625-22.511719 30.796875-22.511719 55.824219 0 27.402343 11.828125 58.027343 44.980469 61.894531 2.949219.347656 5.917969.523438 8.890625.519531 5.238281-.039062 10.464844-.496093 15.632812-1.363281-.324218 1.167969-.683594 2.3125-.980468 3.523438-.578126 2.308593-.164063 4.753906 1.140624 6.746093 1.304688 1.992188 3.378907 3.347657 5.726563 3.742188 6.957031 1.035156 13.980469 1.535156 21.011719 1.5 17.394531.457031 34.636718-3.410157 50.167968-11.265625 1.183594 7.546875 3.148438 14.945312 5.859376 22.085937l42.128906 112.75c-9.269532 6.914063-16.699219 16-21.640625 26.453125-7.171875 6.023438-15.929688 9.851563-25.222657 11.019532l-95.429687 23.070312c-30.6875 7.320312-52.3242188 34.773438-52.265625 66.324219v98.046875c0 9.425781 7.640625 17.066406 17.066406 17.066406h477.867188c9.425781 0 17.066406-7.640625 17.066406-17.066406v-98.046875c.058594-31.546875-21.570312-59-52.257812-66.324219l-91.230469-22.082031-1.074219-.265625c-10.984375-3.105469-21.230469-8.390625-30.125-15.546875-5.03125-8.75-11.746094-16.417969-19.753906-22.5625l40.839844-102.851563c4.136718-9.960937 6.792968-20.476562 7.886718-31.207031 15.328125 7.488281 32.234375 11.167969 49.289063 10.726563 7.03125.035156 14.054687-.464844 21.007812-1.5 2.339844-.40625 4.40625-1.765626 5.703125-3.757813 1.292969-1.988281 1.703125-4.429687 1.125-6.730469-.332031-1.332031-.71875-2.5625-1.078125-3.867187 5.164063.875 10.390625 1.332031 15.625 1.367187 3.019531.011719 6.035157-.15625 9.03125-.503906zm-420.011719-16.949219c-27.75-3.214843-29.910156-35.214843-29.910156-44.945312 0-19.625 5.425782-33.910157 16.136719-42.519531 8.605469-6.328126 18.941406-9.859376 29.621094-10.121094-5.539063 4.984375-10.339844 10.730468-14.261719 17.066406-4.722656 7.113281-5.679688 16.082031-2.558594 24.03125 2.128906 4.445312 5.515625 8.171875 9.734375 10.714844 4.480469 2.96875 9.734375 4.558594 15.105469 4.574218 9.628906-.863281 18.855469-4.269531 26.734375-9.871093 3.101563-1.945313 6.324219-3.695313 9.644531-5.238281 12.625-4.960938 26.210938-7.003907 39.738282-5.976563-1.222657 5.082031-1.859376 10.28125-1.894532 15.507813-29.300781.429687-55.8125 17.457031-68.394531 43.917968-9.648437 2.726563-19.707031 3.695313-29.695313 2.859375zm40.960938 14.261719c7.300781-25.644531 30.472656-43.519531 57.128906-44.074219v30.4375c-16.28125 13.804688-42.835937 14.503907-57.128906 13.636719zm367.785156 218.058594c23.019532 5.484375 39.25 26.070312 39.210938 49.734375v98.046875h-85.332032v-51.199219c0-4.714844-3.820312-8.535156-8.535156-8.535156-4.710937 0-8.53125 3.820312-8.53125 8.535156v51.199219h-59.734375v-8.535156c0-4.710938-3.820312-8.53125-8.535156-8.53125-4.710937 0-8.53125 3.820312-8.53125 8.53125v8.535156h-119.46875v-8.535156c0-4.710938-3.820313-8.53125-8.53125-8.53125-4.714844 0-8.535156 3.820312-8.535156 8.53125v8.535156h-59.734375v-51.199219c0-4.714844-3.820313-8.535156-8.53125-8.535156-4.714844 0-8.535156 3.820312-8.535156 8.535156v51.199219h-85.332032v-98.046875c-.035156-23.675781 16.214844-44.269531 39.253906-49.734375l95.375-23.089844c7.03125-1.457031 13.890626-3.621094 20.480469-6.46875 4.054688 16.082031 17.058594 28.359375 33.351563 31.480469 3.792968 24.984375 25.277344 43.449219 50.550781 43.449219s46.753906-18.464844 50.550781-43.449219c17.242188-3.175781 30.753906-16.632813 33.996094-33.859375 7.128906 4.175781 14.78125 7.386718 22.757812 9.546875zm-232.644531 2.714844h65.84375c-3.832031 15.054687-17.386719 25.589843-32.921875 25.589843s-29.089844-10.535156-32.921875-25.589843zm126.789063-225.28125c.007812 12.449218-2.453126 24.777343-7.246094 36.265624l-43.347656 109.066407c-1.484376 3.738281-.152344 8.003906 3.191406 10.238281 7.117187 4.753906 21.800781 17.597656 21.800781 27.042969 0 6.769531-2.675781 13.265625-7.441406 18.074219-2.996094 2.921874-6.65625 5.074218-10.664063 6.28125-1.121094-5.671876-3.191406-11.117188-6.121094-16.101563 4.09375-.613281 7.132813-4.113281 7.160157-8.253906 0-4.710938-3.820313-8.53125-8.53125-8.53125h-25.601563c-4.710937 0-8.53125 3.820312-8.53125 8.53125 0 4.714843 3.820313 8.535156 8.53125 8.535156h5.195313c5.195312 4.488281 8.921875 10.433594 10.695312 17.066406h-65.914062c1.773437-6.632812 5.5-12.578125 10.695312-17.066406h5.195313c4.710937 0 8.53125-3.820313 8.53125-8.535156 0-4.710938-3.820313-8.53125-8.53125-8.53125h-25.601563c-4.710937 0-8.53125 3.820312-8.53125 8.53125.027344 4.140625 3.066407 7.640625 7.160157 8.253906-2.929688 4.984375-5 10.429687-6.121094 16.101563-10.714844-3.28125-18.050782-13.148438-18.105469-24.355469 0-9.386719 14.695313-22.269531 21.808594-27.03125 3.292969-2.203125 4.640625-6.378907 3.253906-10.085938l-44.375-118.855469c-4.148437-10.757812-6.28125-22.191406-6.289063-33.722656v-49.238281c.027344-28.265625 22.933594-51.171875 51.199219-51.199219h7.425781c4.574219-.003906 9.046876 1.324219 12.875 3.824219 13.539063 8.902344 31.066407 8.929687 44.628907.066406 3.855469-2.535156 8.367187-3.890625 12.980469-3.890625h7.425781c28.265625.027344 51.171875 22.933594 51.199219 51.199219zm17.066406-8.789063v-30.507813c13.824218.316407 43.519531 5.667969 57.171875 44.144532-14.308594.863281-40.890625.171875-57.171875-13.636719zm68.191406-3.890625c-12.664062-26.238281-39.058594-43.082031-68.191406-43.511719v-.128906c-.019532-5.289063-.65625-10.558594-1.894532-15.699219 13.535157-1.039062 27.125 1.003906 39.757813 5.972656 3.3125 1.542969 6.527344 3.289063 9.625 5.230469 7.882813 5.601563 17.117187 9 26.75 9.847657 5.417969-.019532 10.710937-1.625 15.226563-4.617188 4.140624-2.558594 7.449218-6.269531 9.523437-10.675781 3.132813-7.925781 2.203125-16.886719-2.492187-24.003907-3.933594-6.332031-8.742188-12.078124-14.285157-17.066406 10.675781.261719 21.015625 3.796875 29.617188 10.121094 10.746093 8.601562 16.171875 22.910156 16.171875 42.511719 0 9.730469-2.160156 41.730469-29.945313 44.953125-10.050781.851562-20.171875-.144532-29.863281-2.933594zm0 0"/><path d="m230.316406 163.34375 5.972656-42.078125v-.160156l2.5-17.492188c.5625-3.898437-1.617187-7.675781-5.273437-9.140625l-42.667969-17.066406c-2.832031-1.132812-6.054687-.671875-8.453125 1.214844-2.398437 1.886718-3.605469 4.90625-3.171875 7.925781s2.445313 5.578125 5.277344 6.714844l7.859375 3.140625c-2.996094 4.253906-4.613281 9.328125-4.625 14.53125 0 14.136718 11.460937 25.601562 25.597656 25.601562 1.222657-.066406 2.4375-.222656 3.636719-.472656l-3.550781 24.859375c-.667969 4.664063 2.570312 8.992187 7.238281 9.660156 4.664062.667969 8.988281-2.570312 9.660156-7.238281zm-16.984375-43.878906c-3.992187.046875-7.46875-2.710938-8.335937-6.609375-.871094-3.898438 1.109375-7.871094 4.746094-9.523438l11.261718 4.503907-1.21875 8.535156c-1.597656 1.917968-3.953125 3.050781-6.453125 3.09375zm0 0"/><path d="m321.09375 77.40625-42.667969 17.066406c-3.65625 1.464844-5.835937 5.242188-5.273437 9.140625l2.5 17.5v.144531l5.972656 42.085938c.671875 4.667969 4.996094 7.90625 9.660156 7.238281 4.664063-.667969 7.90625-4.996093 7.238282-9.660156l-3.550782-24.859375c1.21875.25 2.453125.410156 3.695313.472656 14.136719 0 25.597656-11.464844 25.597656-25.601562-.035156-5.203125-1.671875-10.265625-4.683594-14.507813l7.859375-3.140625c4.378906-1.75 6.507813-6.722656 4.753906-11.101562-1.753906-4.378906-6.726562-6.503906-11.101562-4.753906zm-13.894531 33.527344c.027343 3.578125-2.203125 6.789062-5.566407 8.015625-3.363281 1.226562-7.132812.203125-9.417968-2.554688l-1.21875-8.53125 11.261718-4.507812c2.96875 1.363281 4.890626 4.3125 4.941407 7.578125zm0 0"/><path d="m238.675781 219.792969c-1.171875-4.539063-5.785156-7.285157-10.335937-6.144531-4.546875 1.140624-7.324219 5.734374-6.21875 10.292968l8.535156 34.132813c.949219 3.796875 4.363281 6.460937 8.277344 6.460937.703125 0 1.402344-.085937 2.082031-.257812 4.570313-1.144532 7.347656-5.78125 6.203125-10.351563zm0 0"/><path d="m283.671875 213.589844c-4.570313-1.144532-9.203125 1.632812-10.347656 6.203125l-8.535157 34.132812c-1.144531 4.570313 1.632813 9.207031 6.203126 10.351563.679687.171875 1.375.257812 2.074218.257812 3.910156-.003906 7.320313-2.667968 8.269532-6.460937l8.53125-34.132813c1.148437-4.570312-1.625-9.203125-6.195313-10.351562zm0 0"/><path d="m167.96875 350.300781-51.199219 17.066407c-4.476562 1.492187-6.898437 6.328124-5.410156 10.804687s6.328125 6.898437 10.804687 5.410156l51.199219-17.066406c4.476563-1.488281 6.898438-6.328125 5.410157-10.804687-1.488282-4.476563-6.324219-6.898438-10.804688-5.410157zm0 0"/><path d="m333.234375 355.703125c-.714844 2.148437-.546875 4.492187.464844 6.515625 1.011719 2.027344 2.789062 3.566406 4.9375 4.28125l51.199219 17.066406c2.898437.960938 6.085937.308594 8.371093-1.71875 2.28125-2.027344 3.308594-5.117187 2.695313-8.109375-.613282-2.988281-2.777344-5.421875-5.671875-6.386719l-51.199219-17.066406c-2.152344-.714844-4.496094-.546875-6.523438.472656-2.023437 1.015626-3.5625 2.792969-4.273437 4.945313zm0 0"/></svg>