<svg height="512pt" viewBox="0 0 512 512.66757" width="512pt" xmlns="http://www.w3.org/2000/svg"><path d="m375.800781 319.558594c-1.621093 14.847656-8.191406 77.738281-8.191406 107.777344-8.4375-1.589844-17.015625-2.332032-25.601563-2.21875-3.933593-.003907-7.863281.195312-11.773437.597656h-.171875c-30.34375 1.511718-57.90625 18.144531-73.386719 44.285156-3.519531-6.238281-7.820312-12.003906-12.800781-17.152344-27.222656-28.328125-66.644531-28.925781-86.1875-27.132812h-.167969c-3.953125.332031-7.882812.875-11.777343 1.621094v-2.21875c-.339844-30.808594-6.570313-91.050782-8.191407-105.558594l9.726563-2.390625c19.125-4.660157 32.585937-21.785157 32.597656-41.472657v-14.847656h153.601562v14.59375c-.011718 19.746094 13.433594 36.957032 32.597657 41.726563l1.023437.257812zm0 0" fill="#bfa885"/><path d="m350.199219 319.558594c-1.621094 14.507812-7.847657 74.75-8.191407 105.558594v2.21875c-3.894531-.746094-7.824218-1.289063-11.773437-1.621094h-.171875c-19.542969-1.792969-58.964844-1.195313-86.1875 27.132812-4.980469 5.148438-9.28125 10.914063-12.800781 17.152344-15.480469-26.140625-43.042969-42.773438-73.386719-44.285156h-.167969c-3.914062-.402344-7.84375-.601563-11.777343-.597656-.339844-30.808594-6.570313-91.050782-8.191407-105.558594l9.726563-2.390625c19.125-4.660157 32.585937-21.785157 32.597656-41.472657v-14.847656h128v14.59375c-.007812 19.746094 13.4375 36.957032 32.597656 41.726563l1.023438.257812zm0 0" fill="#ffe0b2"/><path d="m503.800781 408.5625v87.039062c0 4.710938-3.820312 8.53125-8.535156 8.53125h-25.597656c4.710937 0 8.53125-3.820312 8.53125-8.53125v-87.039062c.003906-27.589844-18.910157-51.585938-45.738281-58.027344l-37.886719-10.667968 6.828125-5.289063 56.660156 15.957031c26.828125 6.441406 45.738281 30.4375 45.738281 58.027344zm0 0" fill="#9e9d24"/><path d="m478.199219 408.5625v87.039062c0 4.710938-3.820313 8.53125-8.53125 8.53125h-452.265625c-4.714844 0-8.535156-3.820312-8.535156-8.53125v-87.039062c0-27.589844 18.910156-51.585938 45.738281-58.027344l37.886719-10.667968 18.773437-5.289063 42.667969 33.023437 72.277344 42.152344c5.371093 3.171875 11.222656 5.449219 17.324218 6.742188 14.644532 3.222656 29.96875.816406 42.921875-6.742188l72.277344-42.152344 35.839844-27.734374 37.886719 10.667968c26.828124 6.441406 45.742187 30.4375 45.738281 58.027344zm0 0" fill="#cddc39"/><path d="m145.402344 282.265625s34.132812 76.800781-17.070313 110.933594c0 0-40.335937-27.5625-23.269531-95.828125zm0 0" fill="#fec108"/><path d="m145.402344 282.265625 5.066406-61.863281-52.050781 30.09375c-8.535157 34.136718 8.53125 53.105468 8.53125 53.105468s15.359375 14.121094 42.667969 0c15.871093-8.175781-4.214844-21.335937-4.214844-21.335937zm0 0" fill="#ff9801"/><path d="m162.46875 188.402344c-1.085938 1.550781-.4375 6.824218-.546875 8.632812-.265625 4.269532-.078125 8.457032-.742187 12.648438-.9375 12.847656-2.597657 25.628906-4.976563 38.289062-2.253906 11.511719-9.863281 21.257813-20.480469 26.238282-10.242187 2.117187-20.839844-1.335938-27.867187-9.078126-7.910157-8.242187-12.398438-19.179687-12.554688-30.601562-.035156-6.578125.710938-13.136719 2.226563-19.539062.933594-6.222657 2.683594-12.292969 5.207031-18.058594zm0 0" fill="#fec108"/><path d="m367.265625 282.265625s-34.132813 76.800781 17.066406 110.933594c0 0 40.339844-27.5625 23.273438-95.828125zm0 0" fill="#fec108"/><path d="m367.265625 282.265625-5.066406-61.863281 52.050781 30.09375c8.535156 34.136718-8.53125 53.105468-8.53125 53.105468s-15.359375 14.121094-42.667969 0c-15.871093-8.175781 4.214844-21.335937 4.214844-21.335937zm0 0" fill="#f57c00"/><path d="m350.199219 188.402344c1.085937 1.550781.4375 6.824218.546875 8.632812.265625 4.269532.078125 8.457032.742187 12.648438.9375 12.847656 2.597657 25.628906 4.976563 38.289062 2.253906 11.511719 9.859375 21.257813 20.480468 26.238282 10.242188 2.117187 20.839844-1.335938 27.867188-9.078126 7.910156-8.242187 12.398438-19.179687 12.554688-30.601562.035156-6.578125-.710938-13.136719-2.226563-19.539062-.933594-6.222657-2.683594-12.292969-5.207031-18.058594zm0 0" fill="#fec108"/><path d="m367.265625 77.46875-8.53125 139.007812c.003906 19.410157-10.964844 37.152344-28.332031 45.824219l-51.199219 25.597657c-11.046875 5.523437-23.730469 6.828124-35.667969 3.671874-3.496094-.800781-6.878906-2.035156-10.070312-3.671874l-51.199219-25.597657c-17.367187-8.671875-28.335937-26.414062-28.332031-45.824219l-8.53125-139.007812 42.664062-51.203125h128zm0 0" fill="#bfa885"/><path d="m333.132812 77.46875v139.007812c.007813 19.410157-10.964843 37.152344-28.328124 45.824219l-51.203126 25.597657c-3.191406 1.636718-6.570312 2.871093-10.066406 3.671874-3.496094-.800781-6.878906-2.035156-10.070312-3.671874l-51.199219-25.597657c-17.367187-8.671875-28.335937-26.414062-28.332031-45.824219l-8.53125-139.007812 42.664062-51.203125h102.402344zm0 0" fill="#ffe0b2"/><path d="m256.332031 17.734375v42.667969c42.667969-34.136719 102.402344 17.066406 102.402344 17.066406v128c-.746094 10.148438 5.257813 19.582031 14.761719 23.210938.671875.210937 1.355468.378906 2.046875.511718 16.300781 2.558594 32-17.410156 34.816406-31.488281 1.378906-7.511719 1.949219-15.152344 1.707031-22.785156-.070312-9.765625-.78125-19.511719-2.132812-29.183594l-8.53125-51.199219s-42.667969-119.46875-145.070313-76.800781zm0 0" fill="#f57c00"/><path d="m256.332031 17.734375v42.667969c-42.664062-34.136719-102.398437 17.066406-102.398437 17.066406v128c.746094 10.148438-5.257813 19.582031-14.761719 23.210938-.671875.210937-1.355469.378906-2.046875.511718-16.300781 2.558594-32-17.410156-34.816406-31.488281-1.378906-7.511719-1.949219-15.152344-1.707032-22.785156.070313-9.765625.78125-19.511719 2.132813-29.183594l8.53125-51.199219s42.667969-119.46875 145.066406-76.800781zm0 0" fill="#ff9801"/><path d="m153.933594 103.203125v59.460937c-57.34375-2.644531-85.332032-76.664062-85.332032-76.664062zm0 0" fill="#bfa885"/><path d="m444.066406 86s-28.347656 75.042969-85.691406 77.652344l.359375-58.988282zm0 0" fill="#bfa885"/><path d="m460.535156 342.359375-38.160156-13.78125c-.175781-10.566406-1.582031-21.078125-4.1875-31.316406-.179688-.472657-.394531-.925781-.652344-1.359375 3.75-11.875 4.308594-24.53125 1.625-36.691406.167969-.308594.355469-.5625.519532-.855469 6.707031-13.414063 6.144531-32.117188-1.707032-55.574219 0-.09375-.09375-.148438-.128906-.230469 3.496094-19.171875 3.660156-38.800781.488281-58.027343 0-.078126-.0625-.136719-.078125-.222657 14.933594-16.054687 26.460938-34.96875 33.878906-55.601562.957032-2.886719.308594-6.066407-1.703124-8.34375-2.015626-2.277344-5.085938-3.3125-8.070313-2.71875l-35.746094 7.144531c-7.261719-16.699219-29.105469-58.828125-69.476562-76.707031-15.527344-6.855469-32.609375-9.414063-49.460938-7.40625h-62.667969c-16.863281-2.011719-33.957031.546875-49.492187 7.40625-40.355469 17.878906-62.199219 60.007812-69.496094 76.707031l-35.710937-7.144531c-2.992188-.601563-6.074219.4375-8.089844 2.726562-2.015625 2.289063-2.65625 5.480469-1.683594 8.367188 7.421875 20.628906 18.945313 39.539062 33.871094 55.597656 0 .082031-.070312.144531-.085938.226563-3.179687 19.226562-3.015624 38.859374.484376 58.027343 0 .09375-.101563.144531-.136719.238281-9.597657 28.792969-6.714844 46.167969-1.160157 56.484376-2.671874 12.148437-2.109374 24.785156 1.632813 36.648437-.261719.433594-.476563.886719-.648437 1.359375-2.613282 10.242188-4.019532 20.753906-4.191407 31.324219l-38.167969 13.722656c-30.460937 7.492187-51.851562 34.835937-51.800781 66.203125v87.039062c0 9.425782 7.644531 17.066407 17.070313 17.066407h477.863281c9.425781 0 17.066406-7.640625 17.066406-17.066407v-87.039062c.058594-31.371094-21.335937-58.714844-51.796875-66.203125zm-353.082031-120.679687c2.726563 1.363281 5.976563 1.167968 8.519531-.515626 2.546875-1.679687 4-4.589843 3.816406-7.636718-.183593-3.042969-1.980468-5.757813-4.707031-7.121094-5.179687-2.558594-7.28125-24.941406-5.121093-48.945312 10.542968 7.257812 22.71875 11.800781 35.441406 13.226562v33.277344c-1.589844 7.09375-5.140625 13.597656-10.242188 18.773437-4.222656.941407-7.074218 4.886719-6.636718 9.191407.433593 4.300781 4.019531 7.597656 8.34375 7.671874 3.667968-.199218 7.144531-1.714843 9.789062-4.265624.800781 15.980468-1.109375 39.449218-14.507812 48.390624-3.921876 2.617188-4.980469 7.914063-2.363282 11.835938 2.613282 3.921875 7.914063 4.980469 11.835938 2.363281l.265625-.210937c.578125 1.890625 1.167969 3.984375 1.757812 6.210937-8.3125 4.871094-18.769531 4.078125-26.25-1.988281-6.207031-8.15625-9.171875-18.324219-8.320312-28.535156 4.226562 1.308594 8.722656-1.039063 10.0625-5.257813 1.542969-4.367187-.617188-9.175781-4.910157-10.921875-1.265624-.617187-2.390624-1.488281-3.308593-2.558594-.433594-1.898437-1.511719-3.585937-3.046875-4.78125-3.039063-9.171874-3.253906-19.050781-.613282-28.347656.058594 0 .117188.058594.195313.144532zm143.546875-154.613282c.214844.160156.460938.203125.675781.347656.480469.3125.992188.574219 1.527344.785157.988281.425781 2.054687.632812 3.128906.605469.546875.011718 1.089844-.035157 1.625-.136719 1.078125-.242188 2.109375-.667969 3.042969-1.261719.230469-.101562.457031-.214844.675781-.339844 31.710938-25.371094 76.707031 5.511719 88.535157 14.503906v134.90625c.050781 16.191407-9.105469 31.003907-23.613282 38.195313l-51.199218 25.597656c-12.019532 5.933594-26.109376 5.933594-38.128907 0l-51.199219-25.597656c-14.503906-7.195313-23.65625-22.007813-23.601562-38.195313v-134.894531c11.792969-9.039062 56.695312-39.953125 88.53125-14.515625zm151.671875 90.375c2.167969 23.988282.070313 46.335938-5.121094 48.921875-4.214843 2.105469-5.929687 7.234375-3.820312 11.453125 2.105469 4.21875 7.230469 5.929688 11.449219 3.820313.085937 0 .144531-.109375.222656-.152344 2.652344 9.296875 2.445312 19.175781-.589844 28.355469-1.519531 1.199218-2.585938 2.878906-3.027344 4.761718-.90625 1.070313-2.023437 1.941407-3.277344 2.5625-3.917968 1.394532-6.257812 5.410157-5.542968 9.503907.714844 4.097656 4.277344 7.082031 8.4375 7.066406.746094-.019531 1.492187-.140625 2.207031-.359375.847656 10.179688-2.089844 20.308594-8.242187 28.460938-7.492188 6.054687-17.941407 6.878906-26.289063 2.070312.578125-2.226562 1.160156-4.308594 1.703125-6.203125l.25.199219c2.535156 1.753906 5.820312 2.003906 8.59375.652344 2.773438-1.351563 4.601562-4.09375 4.78125-7.171876.179688-3.078124-1.316406-6.015624-3.914062-7.683593-13.34375-8.898438-15.28125-32.375-14.503907-48.375 2.644531 2.566406 6.132813 4.085937 9.8125 4.277343 4.367188-.015624 8.019531-3.328124 8.457031-7.675781.4375-4.347656-2.472656-8.320312-6.75-9.210937-5.085937-5.144532-8.632812-11.605469-10.242187-18.65625v-33.371094c12.710937-1.4375 24.871094-5.988281 35.40625-13.246094zm-61.003906 108.066406c2.984375-2.113281 5.769531-4.5 8.320312-7.125 1.070313 8.617188 3.691407 16.96875 7.730469 24.652344-2.152344 5.636719-3.988281 11.386719-5.496094 17.230469-6.714844-6.414063-10.523437-15.285156-10.554687-24.570313zm-181.238281 34.78125c-1.515626-5.847656-3.351563-11.609374-5.507813-17.253906 4.042969-7.695312 6.660156-16.054687 7.734375-24.679687 2.554688 2.636719 5.347656 5.03125 8.34375 7.152343v10.1875c-.027344 9.296876-3.847656 18.179688-10.570312 24.59375zm-52.234376 16.113282c6.742188 4.9375 14.886719 7.582031 23.246094 7.542968 5.316406-.085937 10.574219-1.117187 15.527344-3.046874 2.707031 20.523437.777344 45.457031-18.582031 61.636718-8.371094-7.417968-25.175781-27.554687-20.191407-66.132812zm55.902344 2.558594c14.878906-9.355469 23.925782-25.6875 23.96875-43.265626v-.953124l41.601563 20.804687c.324219.160156.664062.261719.988281.417969-.347656 13.898437-2.089844 39.824218-7.558594 50.753906-2.109375 4.21875-.394531 9.347656 3.820313 11.453125 4.21875 2.105469 9.347656.394531 11.453125-3.824219 6.722656-13.457031 8.652344-38.886718 9.207031-53.296875 12.097656 1.910157 24.492187-.019531 35.441406-5.515625l41.582031-20.792968v.953124c.035157 17.574219 9.074219 33.902344 23.945313 43.265626-2.199219 14.410156-1.324219 29.121093 2.558594 43.171874l-69.019531 40.257813c-15.941407 9.285156-35.644532 9.285156-51.589844 0l-69.042969-40.277344c3.910156-14.035156 4.808594-28.742187 2.644531-43.152343zm201.625 1.921874c4.9375 1.917969 10.175782 2.941407 15.472656 3.027344 8.351563.046875 16.503907-2.585937 23.25-7.507812 4.992188 38.601562-11.84375 58.742187-20.1875 66.132812-19.292968-16.144531-21.257812-41.082031-18.535156-61.621094zm1.542969-167.316406v-43.519531l62.59375-12.515625c-9.394531 19.121094-29.839844 51.15625-62.59375 56.035156zm-184.832031-129.859375c22.746094-9.382812 48.402344-8.683593 70.605468 1.921875 1.046876.429688 2.164063.648438 3.292969.636719 1.117188-.003906 2.222657-.226563 3.253907-.65625 22.175781-10.589844 47.800781-11.304687 70.535156-1.960937 32.265625 14.234374 51.535156 48.179687 59.265625 64.578124l-22.121094 4.429688v-15.1875c0-.113281-.058594-.214844-.066406-.324219-.050781-.605469-.171875-1.199219-.359375-1.777343-.089844-.492188-.222656-.976563-.390625-1.449219-.25-.4375-.535157-.851563-.855469-1.238281-.316406-.515626-.691406-.996094-1.117188-1.433594-.078124-.074219-.109374-.1875-.195312-.253906-2.5625-2.203126-61.089844-51.484376-107.957031-21.070313-46.855469-30.421875-105.378907 18.875-107.945313 21.070313-.085937.066406-.121094.179687-.195312.253906-.425782.429687-.800782.910156-1.117188 1.425781-.320312.390625-.609375.8125-.855468 1.253906-.171876.460938-.300782.933594-.390626 1.417969-.1875.585938-.308593 1.195312-.367187 1.808594 0 .109375-.0625.203125-.0625.316406v15.1875l-22.183594-4.429688c7.6875-16.375 26.894531-50.234374 59.226563-64.519531zm-37.03125 86.359375v43.519532c-32.753906-4.882813-53.199219-36.917969-62.59375-56.023438zm349.863281 385.535156h-85.332031v-51.199218c0-4.714844-3.820313-8.535156-8.53125-8.535156-4.714844 0-8.535156 3.820312-8.535156 8.535156v51.199218h-128v-17.066406c0-4.714844-3.820313-8.535156-8.535157-8.535156-4.710937 0-8.53125 3.820312-8.53125 8.535156v17.066406h-128v-51.199218c0-4.714844-3.820312-8.535156-8.535156-8.535156-4.710937 0-8.53125 3.820312-8.53125 8.535156v51.199218h-85.332031v-87.039062c-.042969-23.660156 16.183594-44.246094 39.199218-49.734375.289063-.074219.574219-.164063.855469-.273437l33.910157-12.234376c2.714843 21.84375 14.53125 41.523438 32.53125 54.195313 2.828124 1.699219 6.382812 1.617187 9.128906-.214844 8.78125-5.753906 16.140625-13.425781 21.519531-22.441406l67.347656 39.25c21.261719 12.382813 47.535157 12.382813 68.792969 0l67.328125-39.25c5.378906 9.007813 12.738281 16.675781 21.515625 22.425781 2.742188 1.824219 6.292969 1.910156 9.121094.210938 18.011718-12.664063 29.828125-32.351563 32.535156-54.203125l33.972656 12.261719c.292969.109374.59375.199218.894532.273437 23.019531 5.488281 39.25 26.070313 39.210937 49.734375zm0 0"/><path d="m213.667969 120.132812c-4.714844 0-8.535157 3.820313-8.535157 8.535157v17.066406c0 4.710937 3.820313 8.53125 8.535157 8.53125 4.710937 0 8.53125-3.820313 8.53125-8.53125v-17.066406c0-4.714844-3.820313-8.535157-8.53125-8.535157zm0 0"/><path d="m299 154.265625c4.714844 0 8.535156-3.820313 8.535156-8.53125v-17.066406c0-4.714844-3.820312-8.535157-8.535156-8.535157-4.710938 0-8.53125 3.820313-8.53125 8.535157v17.066406c0 4.710937 3.820312 8.53125 8.53125 8.53125zm0 0"/><path d="m247.800781 239.601562h17.066407c14.136718 0 25.601562-11.460937 25.601562-25.601562 0-4.710938-3.820312-8.53125-8.535156-8.53125-4.710938 0-8.53125 3.820312-8.53125 8.53125 0 4.714844-3.824219 8.535156-8.535156 8.535156h-17.066407c-4.714843 0-8.535156-3.820312-8.535156-8.535156 0-4.710938-3.820313-8.53125-8.53125-8.53125-4.714844 0-8.535156 3.820312-8.535156 8.53125 0 14.140625 11.460937 25.601562 25.601562 25.601562zm0 0"/></svg>