<?xml version="1.0" encoding="iso-8859-1"?>
<!-- Generator: Adobe Illustrator 19.0.0, SVG Export Plug-In . SVG Version: 6.00 Build 0)  -->
<svg version="1.1" id="Layer_1" xmlns="http://www.w3.org/2000/svg" xmlns:xlink="http://www.w3.org/1999/xlink" x="0px" y="0px"
	 viewBox="0 0 512 512" style="enable-background:new 0 0 512 512;" xml:space="preserve">
<g>
	<g>
		<path style="fill:#F0C419;" d="M42.667,76.8H8.533C3.814,76.8,0,72.977,0,68.267s3.814-8.533,8.533-8.533h34.133
			c4.719,0,8.533,3.823,8.533,8.533S47.386,76.8,42.667,76.8"/>
		<path style="fill:#F0C419;" d="M503.467,76.8h-34.133c-4.719,0-8.533-3.823-8.533-8.533s3.814-8.533,8.533-8.533h34.133
			c4.719,0,8.533,3.823,8.533,8.533S508.186,76.8,503.467,76.8"/>
		<path style="fill:#F0C419;" d="M42.667,452.267H8.533c-4.719,0-8.533-3.823-8.533-8.533c0-4.71,3.814-8.533,8.533-8.533h34.133
			c4.719,0,8.533,3.823,8.533,8.533C51.2,448.444,47.386,452.267,42.667,452.267"/>
		<path style="fill:#F0C419;" d="M503.467,452.267h-34.133c-4.719,0-8.533-3.823-8.533-8.533c0-4.71,3.814-8.533,8.533-8.533h34.133
			c4.719,0,8.533,3.823,8.533,8.533C512,448.444,508.186,452.267,503.467,452.267"/>
	</g>
	<polygon style="fill:#F0EDE0;" points="93.867,401.067 418.133,401.067 418.133,110.933 93.867,110.933 	"/>
	<g>
		<path style="fill:#D6D1BB;" d="M290.133,221.867h-68.267c-4.719,0-8.533-3.823-8.533-8.533c0-4.71,3.814-8.533,8.533-8.533h68.267
			c4.719,0,8.533,3.823,8.533,8.533C298.667,218.044,294.852,221.867,290.133,221.867"/>
		<path style="fill:#D6D1BB;" d="M196.267,213.333c0,4.71-3.823,8.533-8.533,8.533c-4.71,0-8.533-3.823-8.533-8.533
			c0-4.71,3.823-8.533,8.533-8.533C192.444,204.8,196.267,208.623,196.267,213.333"/>
		<path style="fill:#D6D1BB;" d="M153.6,221.867h-17.067c-4.719,0-8.533-3.823-8.533-8.533c0-4.71,3.814-8.533,8.533-8.533H153.6
			c4.719,0,8.533,3.823,8.533,8.533C162.133,218.044,158.319,221.867,153.6,221.867"/>
		<path style="fill:#D6D1BB;" d="M375.467,221.867H358.4c-4.719,0-8.533-3.823-8.533-8.533c0-4.71,3.814-8.533,8.533-8.533h17.067
			c4.719,0,8.533,3.823,8.533,8.533C384,218.044,380.186,221.867,375.467,221.867"/>
		<path style="fill:#D6D1BB;" d="M332.8,213.333c0,4.71-3.823,8.533-8.533,8.533s-8.533-3.823-8.533-8.533
			c0-4.71,3.823-8.533,8.533-8.533S332.8,208.623,332.8,213.333"/>
		<path style="fill:#D6D1BB;" d="M187.733,179.2H153.6c-4.719,0-8.533-3.823-8.533-8.533c0-4.71,3.814-8.533,8.533-8.533h34.133
			c4.719,0,8.533,3.823,8.533,8.533C196.267,175.377,192.452,179.2,187.733,179.2"/>
		<path style="fill:#D6D1BB;" d="M366.933,179.2h-25.6c-4.719,0-8.533-3.823-8.533-8.533c0-4.71,3.814-8.533,8.533-8.533h25.6
			c4.719,0,8.533,3.823,8.533,8.533C375.467,175.377,371.652,179.2,366.933,179.2"/>
		<path style="fill:#D6D1BB;" d="M298.667,170.667c0-4.71,3.823-8.533,8.533-8.533s8.533,3.823,8.533,8.533
			c0,4.71-3.823,8.533-8.533,8.533S298.667,175.377,298.667,170.667"/>
		<path style="fill:#D6D1BB;" d="M213.333,170.667c0-4.71,3.823-8.533,8.533-8.533c4.71,0,8.533,3.823,8.533,8.533
			c0,4.71-3.823,8.533-8.533,8.533C217.156,179.2,213.333,175.377,213.333,170.667"/>
		<path style="fill:#D6D1BB;" d="M273.067,179.2H256c-4.719,0-8.533-3.823-8.533-8.533c0-4.71,3.814-8.533,8.533-8.533h17.067
			c4.719,0,8.533,3.823,8.533,8.533C281.6,175.377,277.786,179.2,273.067,179.2"/>
		<path style="fill:#D6D1BB;" d="M187.733,264.533H153.6c-4.719,0-8.533-3.823-8.533-8.533c0-4.71,3.814-8.533,8.533-8.533h34.133
			c4.719,0,8.533,3.823,8.533,8.533C196.267,260.71,192.452,264.533,187.733,264.533"/>
		<path style="fill:#D6D1BB;" d="M366.933,264.533h-25.6c-4.719,0-8.533-3.823-8.533-8.533c0-4.71,3.814-8.533,8.533-8.533h25.6
			c4.719,0,8.533,3.823,8.533,8.533C375.467,260.71,371.652,264.533,366.933,264.533"/>
		<path style="fill:#D6D1BB;" d="M298.667,256c0-4.71,3.823-8.533,8.533-8.533s8.533,3.823,8.533,8.533
			c0,4.71-3.823,8.533-8.533,8.533S298.667,260.71,298.667,256"/>
		<path style="fill:#D6D1BB;" d="M213.333,256c0-4.71,3.823-8.533,8.533-8.533c4.71,0,8.533,3.823,8.533,8.533
			c0,4.71-3.823,8.533-8.533,8.533C217.156,264.533,213.333,260.71,213.333,256"/>
		<path style="fill:#D6D1BB;" d="M273.067,264.533H256c-4.719,0-8.533-3.823-8.533-8.533c0-4.71,3.814-8.533,8.533-8.533h17.067
			c4.719,0,8.533,3.823,8.533,8.533C281.6,260.71,277.786,264.533,273.067,264.533"/>
		<path style="fill:#D6D1BB;" d="M290.133,307.2h-68.267c-4.719,0-8.533-3.823-8.533-8.533c0-4.71,3.814-8.533,8.533-8.533h68.267
			c4.719,0,8.533,3.823,8.533,8.533C298.667,303.377,294.852,307.2,290.133,307.2"/>
		<path style="fill:#D6D1BB;" d="M196.267,298.667c0,4.71-3.823,8.533-8.533,8.533c-4.71,0-8.533-3.823-8.533-8.533
			c0-4.71,3.823-8.533,8.533-8.533C192.444,290.133,196.267,293.956,196.267,298.667"/>
		<path style="fill:#D6D1BB;" d="M153.6,307.2h-17.067c-4.719,0-8.533-3.823-8.533-8.533c0-4.71,3.814-8.533,8.533-8.533H153.6
			c4.719,0,8.533,3.823,8.533,8.533C162.133,303.377,158.319,307.2,153.6,307.2"/>
		<path style="fill:#D6D1BB;" d="M375.467,307.2H358.4c-4.719,0-8.533-3.823-8.533-8.533c0-4.71,3.814-8.533,8.533-8.533h17.067
			c4.719,0,8.533,3.823,8.533,8.533C384,303.377,380.186,307.2,375.467,307.2"/>
		<path style="fill:#D6D1BB;" d="M332.8,298.667c0,4.71-3.823,8.533-8.533,8.533s-8.533-3.823-8.533-8.533
			c0-4.71,3.823-8.533,8.533-8.533S332.8,293.956,332.8,298.667"/>
		<path style="fill:#D6D1BB;" d="M187.733,349.867H153.6c-4.719,0-8.533-3.823-8.533-8.533s3.814-8.533,8.533-8.533h34.133
			c4.719,0,8.533,3.823,8.533,8.533S192.452,349.867,187.733,349.867"/>
		<path style="fill:#D6D1BB;" d="M366.933,349.867h-25.6c-4.719,0-8.533-3.823-8.533-8.533s3.814-8.533,8.533-8.533h25.6
			c4.719,0,8.533,3.823,8.533,8.533S371.652,349.867,366.933,349.867"/>
		<path style="fill:#D6D1BB;" d="M298.667,341.333c0-4.71,3.823-8.533,8.533-8.533s8.533,3.823,8.533,8.533
			s-3.823,8.533-8.533,8.533S298.667,346.044,298.667,341.333"/>
		<path style="fill:#D6D1BB;" d="M213.333,341.333c0-4.71,3.823-8.533,8.533-8.533c4.71,0,8.533,3.823,8.533,8.533
			s-3.823,8.533-8.533,8.533C217.156,349.867,213.333,346.044,213.333,341.333"/>
		<path style="fill:#D6D1BB;" d="M273.067,349.867H256c-4.719,0-8.533-3.823-8.533-8.533s3.814-8.533,8.533-8.533h17.067
			c4.719,0,8.533,3.823,8.533,8.533S277.786,349.867,273.067,349.867"/>
	</g>
	<path style="fill:#F0C419;" d="M426.285,110.933H85.711c-4.924,0-8.909-3.994-8.909-8.917V34.517c0-4.924,3.985-8.917,8.909-8.917
		h340.574c4.924,0,8.917,3.994,8.917,8.917v67.499C435.203,106.94,431.209,110.933,426.285,110.933"/>
	<g>
		<path style="fill:#E57E25;" d="M76.8,93.867H51.584c-4.924,0-8.917-3.994-8.917-8.917V51.584c0-4.924,3.994-8.917,8.917-8.917
			H76.8V93.867z"/>
		<path style="fill:#E57E25;" d="M435.2,42.667h25.216c4.924,0,8.917,3.994,8.917,8.917v33.365c0,4.924-3.994,8.917-8.917,8.917
			H435.2V42.667z"/>
	</g>
	<path style="fill:#F0C419;" d="M426.285,486.4H85.711c-4.924,0-8.909-3.994-8.909-8.917v-67.499c0-4.924,3.985-8.917,8.909-8.917
		h340.574c4.924,0,8.917,3.994,8.917,8.917v67.499C435.203,482.406,431.209,486.4,426.285,486.4"/>
	<g>
		<path style="fill:#E57E25;" d="M76.8,469.333H51.584c-4.924,0-8.917-3.994-8.917-8.917v-33.365c0-4.924,3.994-8.917,8.917-8.917
			H76.8V469.333z"/>
		<path style="fill:#E57E25;" d="M435.2,418.133h25.216c4.924,0,8.917,3.994,8.917,8.917v33.365c0,4.924-3.994,8.917-8.917,8.917
			H435.2V418.133z"/>
	</g>
</g>
<g>
</g>
<g>
</g>
<g>
</g>
<g>
</g>
<g>
</g>
<g>
</g>
<g>
</g>
<g>
</g>
<g>
</g>
<g>
</g>
<g>
</g>
<g>
</g>
<g>
</g>
<g>
</g>
<g>
</g>
</svg>
