<?xml version="1.0" encoding="iso-8859-1"?>
<!-- Generator: Adobe Illustrator 19.0.0, SVG Export Plug-In . SVG Version: 6.00 Build 0)  -->
<svg version="1.1" id="Layer_1" xmlns="http://www.w3.org/2000/svg" xmlns:xlink="http://www.w3.org/1999/xlink" x="0px" y="0px"
	 viewBox="0 0 512 512" style="enable-background:new 0 0 512 512;" xml:space="preserve">
<g>
	<polygon style="fill:#F0C419;" points="370.759,229.517 256,79.448 141.241,229.517 26.483,79.448 88.276,344.276 256,344.276 
		423.724,344.276 485.517,79.448 	"/>
	<path style="fill:#FFFFFF;" d="M291.31,238.345c0,34.127-15.81,61.793-35.31,61.793s-35.31-27.666-35.31-61.793
		s15.81-61.793,35.31-61.793S291.31,204.217,291.31,238.345"/>
	<path style="fill:#E64C3C;" d="M256,264.828c-4.873,0-8.828-3.955-8.828-8.828v-35.319c0-4.882,3.955-8.828,8.828-8.828
		s8.828,3.946,8.828,8.828V256C264.828,260.873,260.873,264.828,256,264.828"/>
	<g>
		<path style="fill:#BA941C;" d="M450.207,379.586H61.793c-9.754,0-17.655-7.901-17.655-17.655c0-9.755,7.901-17.655,17.655-17.655
			h388.414c9.754,0,17.655,7.901,17.655,17.655C467.862,371.686,459.961,379.586,450.207,379.586"/>
		<path style="fill:#BA941C;" d="M450.207,485.517H61.793c-9.754,0-17.655-7.901-17.655-17.655s7.901-17.655,17.655-17.655h388.414
			c9.754,0,17.655,7.901,17.655,17.655S459.961,485.517,450.207,485.517"/>
	</g>
	<polygon style="fill:#F0C419;" points="70.621,450.207 441.379,450.207 441.379,379.586 70.621,379.586 	"/>
	<g>
		<path style="fill:#BA941C;" d="M220.69,423.724h-70.621c-4.873,0-8.828-3.955-8.828-8.828s3.955-8.828,8.828-8.828h70.621
			c4.873,0,8.828,3.955,8.828,8.828S225.562,423.724,220.69,423.724"/>
		<path style="fill:#BA941C;" d="M361.931,423.724H291.31c-4.873,0-8.828-3.955-8.828-8.828s3.955-8.828,8.828-8.828h70.621
			c4.873,0,8.828,3.955,8.828,8.828S366.804,423.724,361.931,423.724"/>
		<path style="fill:#BA941C;" d="M264.828,414.897c0,4.873-3.955,8.828-8.828,8.828s-8.828-3.955-8.828-8.828
			s3.955-8.828,8.828-8.828S264.828,410.024,264.828,414.897"/>
		<path style="fill:#BA941C;" d="M406.069,414.897c0,4.873-3.955,8.828-8.828,8.828c-4.873,0-8.828-3.955-8.828-8.828
			s3.955-8.828,8.828-8.828C402.114,406.069,406.069,410.024,406.069,414.897"/>
		<path style="fill:#BA941C;" d="M105.931,414.897c0-4.873,3.955-8.828,8.828-8.828s8.828,3.955,8.828,8.828
			s-3.955,8.828-8.828,8.828S105.931,419.769,105.931,414.897"/>
		<path style="fill:#BA941C;" d="M52.966,52.966c0,14.627-11.855,26.483-26.483,26.483S0,67.593,0,52.966
			s11.855-26.483,26.483-26.483S52.966,38.338,52.966,52.966"/>
		<path style="fill:#BA941C;" d="M282.483,52.966c0,14.627-11.855,26.483-26.483,26.483c-14.627,0-26.483-11.855-26.483-26.483
			S241.373,26.483,256,26.483C270.627,26.483,282.483,38.338,282.483,52.966"/>
		<path style="fill:#BA941C;" d="M512,52.966c0,14.627-11.855,26.483-26.483,26.483s-26.483-11.855-26.483-26.483
			s11.855-26.483,26.483-26.483S512,38.338,512,52.966"/>
	</g>
</g>
<g>
</g>
<g>
</g>
<g>
</g>
<g>
</g>
<g>
</g>
<g>
</g>
<g>
</g>
<g>
</g>
<g>
</g>
<g>
</g>
<g>
</g>
<g>
</g>
<g>
</g>
<g>
</g>
<g>
</g>
</svg>
