<svg height="511pt" viewBox="-29 0 511 511.99993" width="511pt" xmlns="http://www.w3.org/2000/svg"><path d="m144.59375 133.964844c-70.90625-36.398438-104.113281-128.035156-104.4375-128.953125-.933594-2.632813-3.246094-4.535157-6.011719-4.933594-2.769531-.398437-5.523437.765625-7.164062 3.027344-26.800781 36.949219-33.527344 81.019531-18.949219 124.089843 14.304688 42.257813 47.402344 77.667969 82.363281 88.121094.71875.214844 1.441407.316406 2.15625.316406 3.234375 0 55.695313-79.792968 52.042969-81.667968zm0 0" fill="#f3d9ab"/><path d="m144.59375 133.964844c-70.90625-36.398438-104.113281-128.035156-104.4375-128.953125-.933594-2.632813-3.246094-4.535157-6.011719-4.933594-2.769531-.398437-5.523437.765625-7.164062 3.027344-2.375 3.277343-4.585938 6.609375-6.644531 9.992187 9.90625 23.304688 42.734374 90.859375 101.199218 120.867188 3.011719 1.550781-32.152344 56.105468-46.378906 75.167968 5.003906 2.554688 10.097656 4.644532 15.238281 6.183594.71875.214844 1.441407.316406 2.15625.316406 3.234375 0 55.695313-79.792968 52.042969-81.667968zm0 0" fill="#e5c498"/><path d="m426.902344 3.105469c-1.636719-2.257813-4.394532-3.425781-7.15625-3.027344-2.761719.394531-5.078125 2.289063-6.015625 4.917969-.304688.859375-31.445313 86.496094-97.664063 125.199218-3.542968 2.070313 53.964844 80.964844 56.773438 80.964844 1.085937 0 2.1875-.238281 3.234375-.734375 33.925781-16.195312 62.582031-53.144531 73.003906-94.128906 7.09375-27.90625 9.007813-70.195313-22.175781-113.191406zm0 0" fill="#f3d9ab"/><path d="m426.902344 3.105469c-1.636719-2.257813-4.394532-3.425781-7.15625-3.027344-2.761719.394531-5.078125 2.289063-6.015625 4.917969-.054688.15625-1.132813 3.117187-3.246094 8.078125 24.191406 39.488281 22.078125 77.476562 15.53125 103.222656-9.085937 35.742187-32.042969 68.410156-60.273437 86.925781 3.886718 4.894532 6.546874 7.9375 7.097656 7.9375 1.085937 0 2.1875-.238281 3.234375-.734375 33.925781-16.195312 62.582031-53.144531 73.003906-94.128906 7.09375-27.90625 9.007813-70.195313-22.175781-113.191406zm0 0" fill="#e8cea6"/><path d="m404.816406 296.9375h-344.695312c-9.214844 9.683594-14.429688 22.53125-14.429688 35.941406 0 28.796875 23.429688 52.226563 52.226563 52.226563h3.03125v38.238281c0 29.125 23.695312 52.820312 52.820312 52.820312h6.824219v12.273438c0 12.992188 10.570312 23.5625 23.5625 23.5625h93.679688c12.992187 0 23.558593-10.570312 23.558593-23.5625v-12.273438h.511719c29.128906 0 52.824219-23.695312 52.824219-52.820312v-38.238281h12.246093c28.796876 0 52.226563-23.429688 52.226563-52.226563 0-13.917968-5.484375-26.570312-14.386719-35.941406zm0 0" fill="#f3eeeb"/><path d="m404.816406 296.9375h-23.0625c8.90625 9.371094 14.386719 22.023438 14.386719 35.9375 0 28.796875-23.425781 52.226562-52.226563 52.226562h-12.242187v38.238282c0 29.128906-23.699219 52.824218-52.824219 52.824218h-.511718v12.273438c0 12.992188-10.570313 23.5625-23.5625 23.5625h23.0625c12.992187 0 23.558593-10.570312 23.558593-23.5625v-12.273438h.511719c29.128906 0 52.824219-23.695312 52.824219-52.824218v-38.238282h12.246093c28.796876 0 52.226563-23.429687 52.226563-52.226562 0-13.914062-5.484375-26.566406-14.386719-35.9375zm0 0" fill="#e9ecec"/><path d="m211.945312 327.449219c0 23.191406-18.800781 41.996093-41.996093 41.996093-23.195313 0-41.996094-18.804687-41.996094-41.996093 0-23.195313 18.800781-41.996094 41.996094-41.996094 23.195312 0 41.996093 18.800781 41.996093 41.996094zm0 0" fill="#929e9e"/><path d="m339.546875 327.449219c0 23.191406-18.800781 41.996093-41.992187 41.996093-23.195313 0-41.996094-18.804687-41.996094-41.996093 0-23.195313 18.800781-41.996094 41.996094-41.996094 23.191406 0 41.992187 18.800781 41.992187 41.996094zm0 0" fill="#929e9e"/><path d="m169.949219 285.453125c-4 0-7.863281.570313-11.53125 1.613281 17.585937 5.015625 30.46875 21.1875 30.46875 40.382813 0 19.191406-12.882813 35.367187-30.46875 40.378906 3.667969 1.042969 7.53125 1.617187 11.53125 1.617187 23.195312 0 41.996093-18.804687 41.996093-41.996093 0-23.195313-18.800781-41.996094-41.996093-41.996094zm0 0" fill="#5c626a"/><path d="m297.554688 285.453125c-4.003907 0-7.867188.570313-11.53125 1.613281 17.585937 5.015625 30.464843 21.1875 30.464843 40.382813 0 19.191406-12.878906 35.367187-30.464843 40.378906 3.664062 1.042969 7.527343 1.617187 11.53125 1.617187 23.191406 0 41.992187-18.804687 41.992187-41.996093 0-23.195313-18.800781-41.996094-41.992187-41.996094zm0 0" fill="#5c626a"/><path d="m211.6875 389.925781 14.878906-28.605469c1.714844-3.300781 6.410156-3.371093 8.222656-.125l15.996094 28.605469c1.738282 3.113281-.511718 6.953125-4.082031 6.953125h-30.871094c-3.503906 0-5.761719-3.71875-4.144531-6.828125zm0 0" fill="#929e9e"/><g fill="#7a8786"><path d="m282.335938 449.933594h-101.535157c-4.152343 0-7.519531-3.367188-7.519531-7.519532 0-4.152343 3.367188-7.519531 7.519531-7.519531h101.535157c4.152343 0 7.519531 3.367188 7.519531 7.519531 0 4.152344-3.367188 7.519532-7.519531 7.519532zm0 0"/><path d="m201.105469 463.574219c-4.152344 0-7.519531-3.367188-7.519531-7.519531v-24.550782c0-4.152344 3.367187-7.519531 7.519531-7.519531 4.152343 0 7.519531 3.367187 7.519531 7.519531v24.550782c0 4.152343-3.367188 7.519531-7.519531 7.519531zm0 0"/><path d="m231.566406 463.574219c-4.152344 0-7.519531-3.367188-7.519531-7.519531v-24.550782c0-4.152344 3.367187-7.519531 7.519531-7.519531s7.519532 3.367187 7.519532 7.519531v24.550782c0 4.152343-3.367188 7.519531-7.519532 7.519531zm0 0"/><path d="m262.03125 463.574219c-4.152344 0-7.519531-3.367188-7.519531-7.519531v-24.550782c0-4.152344 3.367187-7.519531 7.519531-7.519531s7.519531 3.367187 7.519531 7.519531v24.550782c0 4.152343-3.367187 7.519531-7.519531 7.519531zm0 0"/></g><path d="m349.777344 148.136719c-23.34375-24.261719-55.035156-38.976563-89.238282-41.4375-.285156-.019531-.570312-.019531-.855468-.007813v48.398438h-51.921875v-48.523438c-70.203125 4.074219-126.492188 62.136719-128.289063 132.515625-.054687 2.242188.882813 4.277344 2.40625 5.695313h302.53125c1.300782-1.351563 2.101563-3.183594 2.101563-5.207032 0-34.339843-13.046875-66.8125-36.734375-91.433593zm0 0" fill="#929e9e"/><path d="m349.777344 148.136719c-23.34375-24.261719-55.035156-38.976563-89.238282-41.4375-.285156-.019531-.570312-.019531-.855468-.007813v3.394532c25.574218 6.03125 48.839844 19.136718 67.035156 38.050781 23.6875 24.621093 36.734375 57.09375 36.734375 91.433593 0 2.023438-.804687 3.855469-2.101563 5.207032h23.058594c1.300782-1.351563 2.101563-3.183594 2.101563-5.207032 0-34.339843-13.046875-66.8125-36.734375-91.433593zm0 0" fill="#7a8786"/><path d="m238.304688 56.917969h-7.71875c-16.113282 0-29.21875 13.105469-29.21875 29.214843v154.886719c0 4.152344 3.367187 7.519531 7.519531 7.519531h51.113281c4.152344 0 7.519531-3.367187 7.519531-7.519531v-154.886719c0-16.109374-13.105469-29.214843-29.214843-29.214843zm0 0" fill="#bd3d36"/><path d="m238.304688 56.917969h-7.71875c-2.65625 0-5.226563.363281-7.671876 1.03125 12.398438 3.375 21.546876 14.730469 21.546876 28.183593v154.886719c0 4.152344-3.367188 7.519531-7.519532 7.519531h23.058594c4.152344 0 7.519531-3.367187 7.519531-7.519531v-154.886719c0-16.109374-13.105469-29.214843-29.214843-29.214843zm0 0" fill="#7f282e"/><path d="m405.304688 233.5h-344.671876c-4.152343 0-7.519531 3.367188-7.519531 7.519531v60.226563c0 4.152344 3.367188 7.519531 7.519531 7.519531h344.671876c4.15625 0 7.519531-3.367187 7.519531-7.519531v-60.226563c0-4.152343-3.363281-7.519531-7.519531-7.519531zm0 0" fill="#c5cccc"/><path d="m405.304688 233.5h-23.058594c4.152344 0 7.519531 3.367188 7.519531 7.519531v60.226563c0 4.152344-3.367187 7.519531-7.519531 7.519531h23.058594c4.15625 0 7.519531-3.367187 7.519531-7.519531v-60.226563c0-4.152343-3.363281-7.519531-7.519531-7.519531zm0 0" fill="#acb5b5"/></svg>