<?xml version="1.0" encoding="iso-8859-1"?>
<!-- Generator: Adobe Illustrator 19.0.0, SVG Export Plug-In . SVG Version: 6.00 Build 0)  -->
<svg version="1.1" id="Capa_1" xmlns="http://www.w3.org/2000/svg" xmlns:xlink="http://www.w3.org/1999/xlink" x="0px" y="0px"
	 viewBox="0 0 512 512" style="enable-background:new 0 0 512 512;" xml:space="preserve">
<path style="fill:#6DC82A;" d="M6.513,124.353l101.994-32.959c7.411-2.395,15.361,1.672,17.755,9.083l26.307,81.409L37.157,219.181
	c-7.53,2.433-14.514-4.957-11.66-12.337l16.028-41.439L4.278,141.181C-2.356,136.867-1.017,126.786,6.513,124.353z"/>
<path style="fill:#5EAC24;" d="M126.262,100.478l26.307,81.409L89.925,202.13l-14.21-43.976l32.793-66.76
	C115.918,88.999,123.868,93.066,126.262,100.478z"/>
<path style="fill:#91DC5A;" d="M114.214,246.646l120.772-39.026l-30.644-94.828L83.571,151.818
	c-7.411,2.395-11.477,10.344-9.083,17.755l21.971,67.99C98.854,244.975,106.803,249.041,114.214,246.646z"/>
<path style="fill:#FFE477;" d="M132.94,184.87l8.751-26.755c0.794-2.427,3.724-3.374,5.789-1.871l22.754,16.575l15.937-10.357
	c2.586-1.68,5.983,0.295,5.803,3.373l-1.422,24.333c-0.159,2.709-1.964,5.044-4.546,5.878l-52.266,16.89
	c-2.583,0.834-5.413-0.002-7.127-2.107l-15.392-18.9c-1.947-2.391-0.347-5.98,2.732-6.131L132.94,184.87z"/>
<path style="fill:#AA6100;" d="M318.074,429.098L318.074,429.098c5.735-1.853,8.912-8.062,7.059-13.798L220,89.961
	c-1.853-5.735-8.062-8.912-13.798-7.059l0,0c-5.735,1.853-8.912,8.062-7.059,13.798l105.132,325.34
	C306.129,427.775,312.338,430.951,318.074,429.098z"/>
<polygon style="fill:#9A4C00;" points="228.244,186.752 272.24,322.902 283.756,287.262 239.76,151.111 "/>
<path style="fill:#D80027;" d="M505.487,124.353L403.493,91.395c-7.411-2.395-15.361,1.672-17.755,9.083l-26.308,81.409
	l115.413,37.295c7.53,2.433,14.514-4.957,11.66-12.337l-16.028-41.439l37.246-24.224
	C514.356,136.867,513.017,126.786,505.487,124.353z"/>
<path style="fill:#A5001E;" d="M385.738,100.478l-26.308,81.409l62.644,20.243l14.21-43.976l-32.793-66.76
	C396.082,88.999,388.133,93.066,385.738,100.478z"/>
<path style="fill:#FF0C38;" d="M397.786,246.646L277.014,207.62l30.644-94.828l120.772,39.026
	c7.411,2.395,11.477,10.344,9.083,17.755l-21.971,67.99C413.146,244.975,405.197,249.041,397.786,246.646z"/>
<path style="fill:#FFE477;" d="M379.06,184.87l-8.751-26.755c-0.794-2.427-3.724-3.374-5.789-1.871l-22.754,16.575l-15.937-10.357
	c-2.586-1.68-5.983,0.295-5.803,3.373l1.422,24.333c0.159,2.709,1.964,5.044,4.546,5.878l52.266,16.89
	c2.583,0.834,5.413-0.002,7.127-2.107l15.392-18.9c1.947-2.391,0.347-5.98-2.732-6.131L379.06,184.87z"/>
<path style="fill:#CC7400;" d="M193.926,429.098L193.926,429.098c-5.735-1.853-8.912-8.062-7.059-13.798L292,89.961
	c1.853-5.735,8.062-8.912,13.798-7.059l0,0c5.735,1.853,8.912,8.062,7.059,13.798L207.725,422.039
	C205.871,427.775,199.662,430.951,193.926,429.098z"/>
<g>
</g>
<g>
</g>
<g>
</g>
<g>
</g>
<g>
</g>
<g>
</g>
<g>
</g>
<g>
</g>
<g>
</g>
<g>
</g>
<g>
</g>
<g>
</g>
<g>
</g>
<g>
</g>
<g>
</g>
</svg>
