<?xml version="1.0" encoding="iso-8859-1"?>
<!-- Generator: Adobe Illustrator 19.0.0, SVG Export Plug-In . SVG Version: 6.00 Build 0)  -->
<svg version="1.1" id="Layer_1" xmlns="http://www.w3.org/2000/svg" xmlns:xlink="http://www.w3.org/1999/xlink" x="0px" y="0px"
	 viewBox="0 0 503.322 503.322" style="enable-background:new 0 0 503.322 503.322;" xml:space="preserve">
<g>
	<g>
		<polygon style="fill:#BA941C;" points="225.627,355.797 277.695,355.797 277.695,295.051 225.627,295.051 		"/>
		<path style="fill:#BA941C;" d="M425.22,34.712H78.102c-9.589,0-17.356-7.767-17.356-17.356S68.513,0,78.102,0H425.22
			c9.589,0,17.356,7.767,17.356,17.356S434.81,34.712,425.22,34.712"/>
		<path style="fill:#BA941C;" d="M425.22,138.847H78.102c-9.589,0-17.356-7.767-17.356-17.356s7.767-17.356,17.356-17.356H425.22
			c9.589,0,17.356,7.767,17.356,17.356S434.81,138.847,425.22,138.847"/>
	</g>
	<polygon style="fill:#F0C419;" points="86.78,104.136 416.542,104.136 416.542,34.712 86.78,34.712 	"/>
	<g>
		<path style="fill:#BA941C;" d="M216.949,78.102h-69.424c-4.799,0-8.678-3.888-8.678-8.678s3.879-8.678,8.678-8.678h69.424
			c4.799,0,8.678,3.888,8.678,8.678S221.748,78.102,216.949,78.102"/>
		<path style="fill:#BA941C;" d="M355.797,78.102h-69.424c-4.799,0-8.678-3.888-8.678-8.678s3.879-8.678,8.678-8.678h69.424
			c4.799,0,8.678,3.888,8.678,8.678S360.596,78.102,355.797,78.102"/>
		<path style="fill:#BA941C;" d="M260.339,69.424c0,4.79-3.888,8.678-8.678,8.678s-8.678-3.888-8.678-8.678s3.888-8.678,8.678-8.678
			S260.339,64.633,260.339,69.424"/>
		<path style="fill:#BA941C;" d="M399.186,69.424c0,4.79-3.888,8.678-8.678,8.678s-8.678-3.888-8.678-8.678s3.888-8.678,8.678-8.678
			S399.186,64.633,399.186,69.424"/>
		<path style="fill:#BA941C;" d="M104.136,69.424c0-4.79,3.888-8.678,8.678-8.678s8.678,3.888,8.678,8.678s-3.888,8.678-8.678,8.678
			S104.136,74.214,104.136,69.424"/>
	</g>
	<g>
		<path style="fill:#F0C419;" d="M86.78,138.847c0,91.058,73.823,164.881,164.881,164.881s164.881-73.823,164.881-164.881H86.78z"/>
		<path style="fill:#F0C419;" d="M286.373,390.508h-69.424c-9.546,0-17.356-7.81-17.356-17.356c0-9.546,7.81-17.356,17.356-17.356
			h69.424c9.546,0,17.356,7.81,17.356,17.356C303.729,382.698,295.919,390.508,286.373,390.508"/>
		<path style="fill:#F0C419;" d="M321.085,503.322H182.237c-9.546,0-17.356-7.81-17.356-17.356c0-9.546,7.81-17.356,17.356-17.356
			h138.847c9.546,0,17.356,7.81,17.356,17.356C338.441,495.512,330.631,503.322,321.085,503.322"/>
	</g>
	<g>
		<path style="fill:#BA941C;" d="M277.695,390.508h-52.068c0,79.36-28.681,76.071-43.39,78.102h138.847
			C306.376,466.58,277.695,469.868,277.695,390.508"/>
		<path style="fill:#BA941C;" d="M225.627,260.339c-47.85,0-86.78-38.929-86.78-86.78c0-4.79,3.879-8.678,8.678-8.678
			s8.678,3.888,8.678,8.678c0,38.279,31.145,69.424,69.424,69.424c4.799,0,8.678,3.888,8.678,8.678
			C234.305,256.451,230.426,260.339,225.627,260.339"/>
	</g>
</g>
<g>
</g>
<g>
</g>
<g>
</g>
<g>
</g>
<g>
</g>
<g>
</g>
<g>
</g>
<g>
</g>
<g>
</g>
<g>
</g>
<g>
</g>
<g>
</g>
<g>
</g>
<g>
</g>
<g>
</g>
</svg>
