<?xml version="1.0" encoding="iso-8859-1"?>
<!-- Generator: Adobe Illustrator 19.0.0, SVG Export Plug-In . SVG Version: 6.00 Build 0)  -->
<svg version="1.1" id="Layer_1" xmlns="http://www.w3.org/2000/svg" xmlns:xlink="http://www.w3.org/1999/xlink" x="0px" y="0px"
	 viewBox="0 0 508.776 508.776" style="enable-background:new 0 0 508.776 508.776;" xml:space="preserve">
<g>
	<path style="fill:#D69C77;" d="M497.804,491.376L497.804,491.376c14.201-14.201,14.677-37.071,1.078-51.847L267.53,188.056
		c-19.905-21.639-53.814-22.339-74.599-1.554l0,0c-20.785,20.785-20.085,54.694,1.554,74.599l251.473,231.352
		C460.734,506.053,483.603,505.577,497.804,491.376"/>
	<path style="fill:#E57E25;" d="M100.907,329.145c0,0,84.067-27.028,24.055-83.896c-7.653-7.249-21.872-13.842-38.93-14.911
		c-42.748-2.677-63.587-50.661-67.162-93.346c-0.629-7.5-0.943-15.674-0.898-24.567c0,0,14.866,6.243,32.705,7.132
		c32.903,1.626,48.29-41.418,21.747-60.937c-10.438-7.68-25.636-15.082-47.643-21.109c0,0,19.618-25.402,55.215-30.468
		c22.806-3.234,45.604,6.494,60.263,24.262c6.449,7.815,13.177,17.246,18.037,27.307c3.108,6.431,7.949,12.09,14.614,14.65
		c7.375,2.838,17.588,2.838,28.941-8.506c0,0,24.118-16.743-6.809-47.679c0,0,86.411-13.581,75.318,74.518
		c0,0-8.515,32.346,6.809,47.67c0,0,23.552,30.927,47.67,6.809c0,0,40.295-28.941,13.617-68.105c0,0,93.049,27.944,32.319,133.937
		l-30.612,55.098l-72.632-78.947c-19.905-21.639-53.814-22.339-74.599-1.554c-20.785,20.785-20.085,54.694,1.554,74.599
		l79.423,73.072l-39.828,22.294c-15.198,7.599-31.484,13.123-48.371,15.028C117.264,379.196,100.907,329.145,100.907,329.145"/>
	<g>
		<path style="fill:#ECF0F1;" d="M320.021,245.113l-107.098,32.957l-18.441-16.968c-8.12-7.473-13.294-16.923-15.486-26.92
			l104.7-28.555L320.021,245.113z"/>
		<polygon style="fill:#ECF0F1;" points="437.994,373.344 379.769,431.568 340.076,395.045 401.471,333.65 		"/>
	</g>
	<polygon style="fill:#D75A4A;" points="476.07,24.395 503.018,51.342 476.07,78.29 449.123,51.342 	"/>
	<path style="fill:#F0C419;" d="M35.93,374.711c0,19.86-16.07,35.93-35.93,35.93c19.86,0,35.93,16.07,35.93,35.93
		c0-19.86,16.07-35.93,35.93-35.93C51.999,410.64,35.93,394.571,35.93,374.711"/>
	<g>
		<path style="fill:#E57E25;" d="M260.491,500.465c-4.967,0-8.982-4.024-8.982-8.982v-35.93c0-4.958,4.015-8.982,8.982-8.982
			c4.967,0,8.982,4.024,8.982,8.982v35.93C269.474,496.441,265.459,500.465,260.491,500.465"/>
		<path style="fill:#E57E25;" d="M278.456,482.5h-35.93c-4.967,0-8.982-4.024-8.982-8.982c0-4.958,4.015-8.982,8.982-8.982h35.93
			c4.967,0,8.982,4.024,8.982,8.982C287.439,478.476,283.423,482.5,278.456,482.5"/>
	</g>
	<path style="fill:#F0C419;" d="M431.158,257.939c0,4.958-4.024,8.982-8.982,8.982c-4.958,0-8.982-4.024-8.982-8.982
		s4.024-8.982,8.982-8.982C427.134,248.956,431.158,252.98,431.158,257.939"/>
	<path style="fill:#E57E25;" d="M71.86,284.886c0,4.958-4.024,8.982-8.982,8.982s-8.982-4.024-8.982-8.982s4.024-8.982,8.982-8.982
		S71.86,279.928,71.86,284.886"/>
</g>
<g>
</g>
<g>
</g>
<g>
</g>
<g>
</g>
<g>
</g>
<g>
</g>
<g>
</g>
<g>
</g>
<g>
</g>
<g>
</g>
<g>
</g>
<g>
</g>
<g>
</g>
<g>
</g>
<g>
</g>
</svg>
